<mxfile host="app.diagrams.net" modified="2023-06-12T13:26:03.777Z" agent="Mozilla/5.0 (Windows NT 10.0; Win64; x64) AppleWebKit/537.36 (KHTML, like Gecko) Chrome/113.0.0.0 Safari/537.36" etag="OxAXw1EdYiqWfHJCqxR4" version="21.3.8" type="device" pages="5">
  <diagram name="主构架" id="aJYpQpSr_V2qhiQmziL1">
    <mxGraphModel dx="2261" dy="1933" grid="0" gridSize="10" guides="1" tooltips="1" connect="1" arrows="1" fold="1" page="1" pageScale="1" pageWidth="827" pageHeight="1169" math="0" shadow="0">
      <root>
        <mxCell id="SpS28PxbXEsLv8NFBt8i-0" />
        <mxCell id="SpS28PxbXEsLv8NFBt8i-1" parent="SpS28PxbXEsLv8NFBt8i-0" />
        <mxCell id="A-jZ1BCKDg5sLc0rEaCl-18" value="" style="rounded=0;whiteSpace=wrap;html=1;fillColor=none;" parent="SpS28PxbXEsLv8NFBt8i-1" vertex="1">
          <mxGeometry x="-800" y="-680" width="480" height="260" as="geometry" />
        </mxCell>
        <mxCell id="Z3bBVuZ_rZmVnZFj9_Ep-3" value="" style="rounded=0;whiteSpace=wrap;html=1;" parent="SpS28PxbXEsLv8NFBt8i-1" vertex="1">
          <mxGeometry x="-172.75" y="-1130" width="166.75" height="400" as="geometry" />
        </mxCell>
        <mxCell id="I6OQf8j_G0AkKVuxYn7g-9" value="" style="edgeStyle=orthogonalEdgeStyle;rounded=1;orthogonalLoop=1;jettySize=auto;html=1;entryX=0;entryY=0.25;entryDx=0;entryDy=0;fontColor=#000000;startArrow=open;startFill=0;endArrow=classicThin;endFill=1;exitX=1;exitY=0.75;exitDx=0;exitDy=0;" parent="SpS28PxbXEsLv8NFBt8i-1" source="I6OQf8j_G0AkKVuxYn7g-2" target="I6OQf8j_G0AkKVuxYn7g-5" edge="1">
          <mxGeometry relative="1" as="geometry">
            <mxPoint x="-744" y="-900" as="sourcePoint" />
          </mxGeometry>
        </mxCell>
        <mxCell id="I6OQf8j_G0AkKVuxYn7g-4" style="edgeStyle=orthogonalEdgeStyle;rounded=0;orthogonalLoop=1;jettySize=auto;html=1;endArrow=none;endFill=0;startArrow=none;startFill=0;" parent="SpS28PxbXEsLv8NFBt8i-1" source="I6OQf8j_G0AkKVuxYn7g-5" target="I6OQf8j_G0AkKVuxYn7g-6" edge="1">
          <mxGeometry relative="1" as="geometry" />
        </mxCell>
        <mxCell id="I6OQf8j_G0AkKVuxYn7g-26" style="edgeStyle=orthogonalEdgeStyle;rounded=0;orthogonalLoop=1;jettySize=auto;html=1;fontColor=#000000;startArrow=none;startFill=0;endArrow=none;endFill=0;entryX=0.5;entryY=0;entryDx=0;entryDy=0;entryPerimeter=0;" parent="SpS28PxbXEsLv8NFBt8i-1" source="I6OQf8j_G0AkKVuxYn7g-5" target="I6OQf8j_G0AkKVuxYn7g-7" edge="1">
          <mxGeometry relative="1" as="geometry" />
        </mxCell>
        <mxCell id="I6OQf8j_G0AkKVuxYn7g-34" value="R3" style="edgeStyle=orthogonalEdgeStyle;rounded=1;orthogonalLoop=1;jettySize=auto;html=1;fontColor=#000000;startArrow=none;startFill=0;endArrow=oval;endFill=0;labelBackgroundColor=none;" parent="SpS28PxbXEsLv8NFBt8i-1" edge="1">
          <mxGeometry x="1" y="-10" relative="1" as="geometry">
            <mxPoint x="-457.5" y="-859" as="targetPoint" />
            <mxPoint as="offset" />
            <mxPoint x="-493.5" y="-859" as="sourcePoint" />
          </mxGeometry>
        </mxCell>
        <mxCell id="I6OQf8j_G0AkKVuxYn7g-5" value="物联网" style="rounded=0;whiteSpace=wrap;html=1;align=center;fillColor=#6a00ff;strokeColor=#3700CC;fontColor=#ffffff;" parent="SpS28PxbXEsLv8NFBt8i-1" vertex="1">
          <mxGeometry x="-627.5" y="-883" width="134" height="40" as="geometry" />
        </mxCell>
        <mxCell id="I6OQf8j_G0AkKVuxYn7g-10" value="" style="edgeStyle=orthogonalEdgeStyle;rounded=1;orthogonalLoop=1;jettySize=auto;html=1;entryX=0;entryY=0.25;entryDx=0;entryDy=0;fontColor=#000000;startArrow=open;startFill=0;endArrow=classicThin;endFill=1;exitX=1;exitY=0.5;exitDx=0;exitDy=0;" parent="SpS28PxbXEsLv8NFBt8i-1" source="I6OQf8j_G0AkKVuxYn7g-3" target="I6OQf8j_G0AkKVuxYn7g-5" edge="1">
          <mxGeometry relative="1" as="geometry">
            <mxPoint x="-762" y="-893" as="sourcePoint" />
            <mxPoint x="-601.5" y="-863" as="targetPoint" />
          </mxGeometry>
        </mxCell>
        <mxCell id="I6OQf8j_G0AkKVuxYn7g-30" value="R4" style="edgeStyle=orthogonalEdgeStyle;rounded=1;orthogonalLoop=1;jettySize=auto;html=1;fontColor=#000000;startArrow=none;startFill=0;endArrow=oval;endFill=0;labelBackgroundColor=none;" parent="SpS28PxbXEsLv8NFBt8i-1" source="I6OQf8j_G0AkKVuxYn7g-13" edge="1">
          <mxGeometry x="1" y="-10" relative="1" as="geometry">
            <mxPoint x="-457.5" y="-953" as="targetPoint" />
            <mxPoint as="offset" />
          </mxGeometry>
        </mxCell>
        <mxCell id="I6OQf8j_G0AkKVuxYn7g-13" value="流媒体服务" style="rounded=0;whiteSpace=wrap;html=1;fontColor=#FFFFFF;fillColor=#6a00ff;" parent="SpS28PxbXEsLv8NFBt8i-1" vertex="1">
          <mxGeometry x="-627" y="-973" width="69" height="40" as="geometry" />
        </mxCell>
        <mxCell id="I6OQf8j_G0AkKVuxYn7g-16" value="GB28181" style="edgeStyle=orthogonalEdgeStyle;rounded=1;jumpStyle=arc;orthogonalLoop=1;jettySize=auto;html=1;startArrow=open;startFill=0;endArrow=open;endFill=0;exitX=0.5;exitY=1;exitDx=0;exitDy=0;entryX=0;entryY=0.5;entryDx=0;entryDy=0;" parent="SpS28PxbXEsLv8NFBt8i-1" source="I6OQf8j_G0AkKVuxYn7g-14" target="I6OQf8j_G0AkKVuxYn7g-13" edge="1">
          <mxGeometry relative="1" as="geometry">
            <mxPoint x="-756.76" y="-973" as="sourcePoint" />
            <mxPoint x="-867.5" y="-933" as="targetPoint" />
          </mxGeometry>
        </mxCell>
        <mxCell id="I6OQf8j_G0AkKVuxYn7g-20" style="edgeStyle=orthogonalEdgeStyle;rounded=1;jumpStyle=arc;orthogonalLoop=1;jettySize=auto;html=1;startArrow=open;startFill=0;endArrow=none;endFill=0;exitX=0.5;exitY=0;exitDx=0;exitDy=0;entryX=0.5;entryY=1;entryDx=0;entryDy=0;" parent="SpS28PxbXEsLv8NFBt8i-1" source="I6OQf8j_G0AkKVuxYn7g-13" target="I6OQf8j_G0AkKVuxYn7g-18" edge="1">
          <mxGeometry relative="1" as="geometry">
            <mxPoint x="-762" y="-962.9714285714285" as="sourcePoint" />
            <mxPoint x="-592.5" y="-1083" as="targetPoint" />
          </mxGeometry>
        </mxCell>
        <mxCell id="I6OQf8j_G0AkKVuxYn7g-21" style="edgeStyle=orthogonalEdgeStyle;rounded=1;jumpStyle=arc;orthogonalLoop=1;jettySize=auto;html=1;startArrow=none;startFill=0;endArrow=doubleBlock;endFill=1;exitX=1;exitY=0.25;exitDx=0;exitDy=0;entryX=0;entryY=0.5;entryDx=0;entryDy=0;" parent="SpS28PxbXEsLv8NFBt8i-1" source="I6OQf8j_G0AkKVuxYn7g-14" target="I6OQf8j_G0AkKVuxYn7g-18" edge="1">
          <mxGeometry relative="1" as="geometry">
            <mxPoint x="-747.5" y="-1013" as="sourcePoint" />
            <mxPoint x="-627.5" y="-1018" as="targetPoint" />
          </mxGeometry>
        </mxCell>
        <mxCell id="I6OQf8j_G0AkKVuxYn7g-23" style="edgeStyle=orthogonalEdgeStyle;rounded=1;jumpStyle=arc;orthogonalLoop=1;jettySize=auto;html=1;startArrow=none;startFill=0;endArrow=doubleBlock;endFill=1;exitX=1;exitY=0.75;exitDx=0;exitDy=0;entryX=0;entryY=0.25;entryDx=0;entryDy=0;" parent="SpS28PxbXEsLv8NFBt8i-1" source="I6OQf8j_G0AkKVuxYn7g-14" target="I6OQf8j_G0AkKVuxYn7g-13" edge="1">
          <mxGeometry relative="1" as="geometry">
            <mxPoint x="-717.5" y="-953" as="sourcePoint" />
            <mxPoint x="-657.5" y="-963" as="targetPoint" />
          </mxGeometry>
        </mxCell>
        <mxCell id="I6OQf8j_G0AkKVuxYn7g-27" style="edgeStyle=orthogonalEdgeStyle;rounded=1;jumpStyle=arc;orthogonalLoop=1;jettySize=auto;html=1;startArrow=none;startFill=0;endArrow=classicThin;endFill=1;exitX=1;exitY=0.5;exitDx=0;exitDy=0;" parent="SpS28PxbXEsLv8NFBt8i-1" source="I6OQf8j_G0AkKVuxYn7g-18" edge="1">
          <mxGeometry relative="1" as="geometry">
            <mxPoint x="-762" y="-979" as="sourcePoint" />
            <mxPoint x="-527.5" y="-883" as="targetPoint" />
          </mxGeometry>
        </mxCell>
        <mxCell id="I6OQf8j_G0AkKVuxYn7g-36" style="edgeStyle=orthogonalEdgeStyle;rounded=1;orthogonalLoop=1;jettySize=auto;html=1;fontColor=#000000;startArrow=none;startFill=0;endArrow=open;endFill=0;exitX=1;exitY=0.5;exitDx=0;exitDy=0;" parent="SpS28PxbXEsLv8NFBt8i-1" source="YY10UkN6TRAArKnKFLUS-1" edge="1">
          <mxGeometry relative="1" as="geometry">
            <mxPoint x="-442" y="-860" as="targetPoint" />
            <Array as="points">
              <mxPoint x="-367" y="-860" />
            </Array>
          </mxGeometry>
        </mxCell>
        <mxCell id="I6OQf8j_G0AkKVuxYn7g-38" value="R5" style="edgeStyle=orthogonalEdgeStyle;rounded=1;orthogonalLoop=1;jettySize=auto;html=1;fontColor=#000000;startArrow=none;startFill=0;endArrow=oval;endFill=0;labelBackgroundColor=none;" parent="SpS28PxbXEsLv8NFBt8i-1" edge="1">
          <mxGeometry x="1" y="-10" relative="1" as="geometry">
            <mxPoint x="-457.5" y="-1049.25" as="targetPoint" />
            <mxPoint x="-558" y="-1049.25" as="sourcePoint" />
            <mxPoint as="offset" />
          </mxGeometry>
        </mxCell>
        <mxCell id="I6OQf8j_G0AkKVuxYn7g-39" style="edgeStyle=orthogonalEdgeStyle;rounded=1;orthogonalLoop=1;jettySize=auto;html=1;fontColor=#000000;startArrow=none;startFill=0;endArrow=open;endFill=0;exitX=0;exitY=0.5;exitDx=0;exitDy=0;" parent="SpS28PxbXEsLv8NFBt8i-1" source="YY10UkN6TRAArKnKFLUS-1" edge="1">
          <mxGeometry relative="1" as="geometry">
            <mxPoint x="-437.5" y="-1043" as="targetPoint" />
            <mxPoint x="-300.5" y="-873" as="sourcePoint" />
            <Array as="points">
              <mxPoint x="-367" y="-1043" />
            </Array>
          </mxGeometry>
        </mxCell>
        <mxCell id="I6OQf8j_G0AkKVuxYn7g-41" value="上&lt;br&gt;层&lt;br&gt;业&lt;br&gt;务&lt;br&gt;系&lt;br&gt;统" style="rounded=0;whiteSpace=wrap;html=1;shadow=0;labelBackgroundColor=none;labelPosition=center;verticalLabelPosition=middle;align=center;verticalAlign=middle;horizontal=0;rotation=90;" parent="SpS28PxbXEsLv8NFBt8i-1" vertex="1">
          <mxGeometry x="-324" y="-975" width="130" height="42" as="geometry" />
        </mxCell>
        <mxCell id="I6OQf8j_G0AkKVuxYn7g-42" value="R6" style="edgeStyle=orthogonalEdgeStyle;rounded=1;orthogonalLoop=1;jettySize=auto;html=1;fontColor=#000000;startArrow=none;startFill=0;endArrow=open;endFill=0;exitX=0.25;exitY=1;exitDx=0;exitDy=0;entryX=0.25;entryY=0;entryDx=0;entryDy=0;" parent="SpS28PxbXEsLv8NFBt8i-1" source="I6OQf8j_G0AkKVuxYn7g-41" target="YY10UkN6TRAArKnKFLUS-1" edge="1">
          <mxGeometry relative="1" as="geometry">
            <mxPoint x="-337.5" y="-953" as="targetPoint" />
            <mxPoint x="-367.5" y="-943" as="sourcePoint" />
          </mxGeometry>
        </mxCell>
        <mxCell id="I6OQf8j_G0AkKVuxYn7g-43" value="REST调用" style="edgeStyle=orthogonalEdgeStyle;rounded=1;orthogonalLoop=1;jettySize=auto;html=1;fontColor=#000000;startArrow=none;startFill=0;endArrow=open;endFill=0;exitX=0;exitY=0.5;exitDx=0;exitDy=0;entryX=1;entryY=0.5;entryDx=0;entryDy=0;verticalAlign=top;labelBackgroundColor=none;labelPosition=center;verticalLabelPosition=bottom;align=center;" parent="SpS28PxbXEsLv8NFBt8i-1" edge="1">
          <mxGeometry relative="1" as="geometry">
            <mxPoint x="-109" y="-844.12" as="targetPoint" />
            <mxPoint x="-69" y="-844.12" as="sourcePoint" />
          </mxGeometry>
        </mxCell>
        <mxCell id="I6OQf8j_G0AkKVuxYn7g-45" value="MQTT数据" style="edgeStyle=orthogonalEdgeStyle;rounded=1;orthogonalLoop=1;jettySize=auto;html=1;fontColor=#000000;startArrow=none;startFill=0;endArrow=classicThin;endFill=1;exitX=0;exitY=0.5;exitDx=0;exitDy=0;entryX=1;entryY=0.5;entryDx=0;entryDy=0;verticalAlign=top;labelBackgroundColor=none;labelPosition=center;verticalLabelPosition=bottom;align=center;" parent="SpS28PxbXEsLv8NFBt8i-1" edge="1">
          <mxGeometry relative="1" as="geometry">
            <mxPoint x="-110" y="-774" as="targetPoint" />
            <mxPoint x="-70" y="-774" as="sourcePoint" />
          </mxGeometry>
        </mxCell>
        <mxCell id="I6OQf8j_G0AkKVuxYn7g-47" value="视频流数据" style="edgeStyle=orthogonalEdgeStyle;rounded=1;orthogonalLoop=1;jettySize=auto;html=1;fontColor=#000000;startArrow=none;startFill=0;endArrow=doubleBlock;endFill=1;exitX=0;exitY=0.5;exitDx=0;exitDy=0;entryX=1;entryY=0.5;entryDx=0;entryDy=0;verticalAlign=top;labelBackgroundColor=none;labelPosition=center;verticalLabelPosition=bottom;align=center;" parent="SpS28PxbXEsLv8NFBt8i-1" edge="1">
          <mxGeometry relative="1" as="geometry">
            <mxPoint x="-110" y="-809.5" as="targetPoint" />
            <mxPoint x="-70" y="-809.5" as="sourcePoint" />
          </mxGeometry>
        </mxCell>
        <mxCell id="I6OQf8j_G0AkKVuxYn7g-48" value="M1" style="text;html=1;strokeColor=none;fillColor=none;align=center;verticalAlign=middle;whiteSpace=wrap;rounded=0;labelBackgroundColor=none;fontColor=#000000;fontSize=8;" parent="SpS28PxbXEsLv8NFBt8i-1" vertex="1">
          <mxGeometry x="-675" y="-910" width="60" height="30" as="geometry" />
        </mxCell>
        <mxCell id="I6OQf8j_G0AkKVuxYn7g-50" value="V1" style="text;html=1;strokeColor=none;fillColor=none;align=center;verticalAlign=middle;whiteSpace=wrap;rounded=0;labelBackgroundColor=none;fontColor=#000000;fontSize=8;" parent="SpS28PxbXEsLv8NFBt8i-1" vertex="1">
          <mxGeometry x="-675" y="-1045" width="60" height="30" as="geometry" />
        </mxCell>
        <mxCell id="I6OQf8j_G0AkKVuxYn7g-51" value="M2" style="text;html=1;strokeColor=none;fillColor=none;align=center;verticalAlign=middle;whiteSpace=wrap;rounded=0;labelBackgroundColor=none;fontColor=#000000;fontSize=8;" parent="SpS28PxbXEsLv8NFBt8i-1" vertex="1">
          <mxGeometry x="-574" y="-910" width="60" height="30" as="geometry" />
        </mxCell>
        <mxCell id="I6OQf8j_G0AkKVuxYn7g-52" value="R1" style="text;html=1;strokeColor=none;fillColor=none;align=center;verticalAlign=middle;whiteSpace=wrap;rounded=0;labelBackgroundColor=none;fontColor=#000000;fontSize=8;" parent="SpS28PxbXEsLv8NFBt8i-1" vertex="1">
          <mxGeometry x="-754" y="-826" width="60" height="30" as="geometry" />
        </mxCell>
        <mxCell id="I6OQf8j_G0AkKVuxYn7g-53" value="R2" style="text;html=1;strokeColor=none;fillColor=none;align=center;verticalAlign=middle;whiteSpace=wrap;rounded=0;labelBackgroundColor=none;fontColor=#000000;fontSize=8;" parent="SpS28PxbXEsLv8NFBt8i-1" vertex="1">
          <mxGeometry x="-754" y="-904" width="60" height="30" as="geometry" />
        </mxCell>
        <mxCell id="I6OQf8j_G0AkKVuxYn7g-54" value="V2" style="text;html=1;strokeColor=none;fillColor=none;align=center;verticalAlign=middle;whiteSpace=wrap;rounded=0;labelBackgroundColor=none;fontColor=#000000;fontSize=8;" parent="SpS28PxbXEsLv8NFBt8i-1" vertex="1">
          <mxGeometry x="-675" y="-990" width="60" height="30" as="geometry" />
        </mxCell>
        <mxCell id="I6OQf8j_G0AkKVuxYn7g-55" value="V3" style="text;html=1;strokeColor=none;fillColor=none;align=center;verticalAlign=middle;whiteSpace=wrap;rounded=0;labelBackgroundColor=none;fontColor=#000000;fontSize=8;" parent="SpS28PxbXEsLv8NFBt8i-1" vertex="1">
          <mxGeometry x="-675" y="-943" width="60" height="30" as="geometry" />
        </mxCell>
        <mxCell id="zGG42fG-QVCkdovZwZpT-0" value="ZZ业务应用&lt;br&gt;ZD业务应用&lt;br&gt;（大调度）" style="text;html=1;strokeColor=none;fillColor=none;align=center;verticalAlign=middle;whiteSpace=wrap;rounded=0;" parent="SpS28PxbXEsLv8NFBt8i-1" vertex="1">
          <mxGeometry x="-307.75" y="-1110" width="100.5" height="30" as="geometry" />
        </mxCell>
        <mxCell id="zGG42fG-QVCkdovZwZpT-2" value="运维保障&lt;br&gt;出入库业务&lt;br&gt;（小调度）" style="text;html=1;strokeColor=none;fillColor=none;align=center;verticalAlign=middle;whiteSpace=wrap;rounded=0;" parent="SpS28PxbXEsLv8NFBt8i-1" vertex="1">
          <mxGeometry x="-407.75" y="-1110" width="100.5" height="30" as="geometry" />
        </mxCell>
        <mxCell id="zGG42fG-QVCkdovZwZpT-3" value="物联网" style="text;html=1;strokeColor=none;fillColor=none;align=center;verticalAlign=middle;whiteSpace=wrap;rounded=0;" parent="SpS28PxbXEsLv8NFBt8i-1" vertex="1">
          <mxGeometry x="-610.75" y="-1110" width="100.5" height="30" as="geometry" />
        </mxCell>
        <mxCell id="zGG42fG-QVCkdovZwZpT-4" value="作业现场&lt;br&gt;（视频监控联动）&lt;br&gt;（AGV作业）&lt;br&gt;（自动巡检机器人）" style="text;html=1;strokeColor=none;fillColor=none;align=center;verticalAlign=middle;whiteSpace=wrap;rounded=0;" parent="SpS28PxbXEsLv8NFBt8i-1" vertex="1">
          <mxGeometry x="-804" y="-1110" width="117.5" height="30" as="geometry" />
        </mxCell>
        <mxCell id="gB-dcHAySAIjkF693FjD-4" style="edgeStyle=orthogonalEdgeStyle;rounded=0;orthogonalLoop=1;jettySize=auto;html=1;endArrow=open;endFill=0;" parent="SpS28PxbXEsLv8NFBt8i-1" source="YY10UkN6TRAArKnKFLUS-1" edge="1">
          <mxGeometry relative="1" as="geometry">
            <mxPoint x="-442" y="-954" as="targetPoint" />
          </mxGeometry>
        </mxCell>
        <mxCell id="YY10UkN6TRAArKnKFLUS-1" value="路径规划仿真服务器" style="rounded=0;whiteSpace=wrap;html=1;shadow=0;labelBackgroundColor=none;fillColor=#cdeb8b;strokeColor=#36393d;labelPosition=center;verticalLabelPosition=middle;align=center;verticalAlign=middle;horizontal=0;rotation=90;" parent="SpS28PxbXEsLv8NFBt8i-1" vertex="1">
          <mxGeometry x="-431.5" y="-975" width="130" height="42" as="geometry" />
        </mxCell>
        <mxCell id="Z3bBVuZ_rZmVnZFj9_Ep-1" value="" style="group" parent="SpS28PxbXEsLv8NFBt8i-1" vertex="1" connectable="0">
          <mxGeometry x="-807" y="-1020" width="63" height="207" as="geometry" />
        </mxCell>
        <mxCell id="I6OQf8j_G0AkKVuxYn7g-2" value="巡检机器人" style="rounded=0;whiteSpace=wrap;html=1;shadow=0;labelBackgroundColor=#ffffff;fillColor=#ffff88;labelPosition=center;verticalLabelPosition=bottom;align=center;verticalAlign=top;strokeColor=#36393d;" parent="Z3bBVuZ_rZmVnZFj9_Ep-1" vertex="1">
          <mxGeometry y="107" width="63" height="20" as="geometry" />
        </mxCell>
        <mxCell id="I6OQf8j_G0AkKVuxYn7g-3" value="运输型机器人" style="rounded=0;whiteSpace=wrap;html=1;shadow=0;labelBackgroundColor=#ffffff;fillColor=#ffff88;labelPosition=center;verticalLabelPosition=bottom;align=center;verticalAlign=top;strokeColor=#36393d;" parent="Z3bBVuZ_rZmVnZFj9_Ep-1" vertex="1">
          <mxGeometry y="187" width="63" height="20" as="geometry" />
        </mxCell>
        <mxCell id="I6OQf8j_G0AkKVuxYn7g-14" value="摄像头" style="rounded=0;whiteSpace=wrap;html=1;shadow=0;labelBackgroundColor=#ffffff;fillColor=#ffff88;labelPosition=center;verticalLabelPosition=top;align=center;verticalAlign=bottom;strokeColor=#36393d;horizontal=1;" parent="Z3bBVuZ_rZmVnZFj9_Ep-1" vertex="1">
          <mxGeometry width="63" height="20" as="geometry" />
        </mxCell>
        <mxCell id="I6OQf8j_G0AkKVuxYn7g-18" value="视频识别&lt;br&gt;服务" style="rounded=0;whiteSpace=wrap;html=1;align=center;fillColor=#6a00ff;strokeColor=#3700CC;fontColor=#ffffff;verticalAlign=bottom;" parent="SpS28PxbXEsLv8NFBt8i-1" vertex="1">
          <mxGeometry x="-627.5" y="-1070" width="70" height="42.5" as="geometry" />
        </mxCell>
        <mxCell id="tA_2AIK8SV-deXdJaFZI-0" value="物联网平台" style="rounded=0;html=1;shadow=0;labelBackgroundColor=#ffffff;fillColor=#6a00ff;labelPosition=center;verticalLabelPosition=bottom;align=center;verticalAlign=top;strokeColor=#3700CC;fontColor=#000000;" parent="SpS28PxbXEsLv8NFBt8i-1" vertex="1">
          <mxGeometry x="-109.80053191489361" y="-969" width="40.851063829787236" height="20" as="geometry" />
        </mxCell>
        <mxCell id="tA_2AIK8SV-deXdJaFZI-1" value="路径规划服务器" style="rounded=0;html=1;shadow=0;labelBackgroundColor=#ffffff;fillColor=#cdeb8b;strokeColor=#36393d;labelPosition=center;verticalLabelPosition=bottom;align=center;verticalAlign=top;" parent="SpS28PxbXEsLv8NFBt8i-1" vertex="1">
          <mxGeometry x="-109.80053191489361" y="-1019" width="40.851063829787236" height="20" as="geometry" />
        </mxCell>
        <mxCell id="tA_2AIK8SV-deXdJaFZI-13" value="仓库管理与任务调度软件" style="rounded=0;html=1;shadow=0;labelBackgroundColor=#ffffff;labelPosition=center;verticalLabelPosition=bottom;align=center;verticalAlign=top;" parent="SpS28PxbXEsLv8NFBt8i-1" vertex="1">
          <mxGeometry x="-109.80053191489361" y="-1068" width="40.851063829787236" height="20" as="geometry" />
        </mxCell>
        <mxCell id="I6OQf8j_G0AkKVuxYn7g-0" value="&lt;font color=&quot;#000000&quot;&gt;现场设备&lt;/font&gt;" style="rounded=0;html=1;shadow=0;labelBackgroundColor=#ffffff;fillColor=#ffff88;labelPosition=center;verticalLabelPosition=bottom;align=center;verticalAlign=top;strokeColor=#36393d;" parent="SpS28PxbXEsLv8NFBt8i-1" vertex="1">
          <mxGeometry x="-109.80053191489361" y="-920" width="40.851063829787236" height="20" as="geometry" />
        </mxCell>
        <mxCell id="Z3bBVuZ_rZmVnZFj9_Ep-4" value="作业现场的视频数据和传感器数据自动采集上传到物联网平台，路径规划服务器求解的路径规划方案通过物联网平台下发到现场作业设备，现场设备、物联网平台和路径规划服务器共同构成闭环的信息GK服务平台，从而实现仓库作业任务的高效自动化执行，并提供智能监测功能，并与上层仓库管理、任务调度等业务系统无缝融合。" style="text;html=1;strokeColor=none;fillColor=none;align=left;verticalAlign=middle;whiteSpace=wrap;rounded=0;" parent="SpS28PxbXEsLv8NFBt8i-1" vertex="1">
          <mxGeometry x="-465" y="-813" width="283" height="60" as="geometry" />
        </mxCell>
        <mxCell id="I6OQf8j_G0AkKVuxYn7g-6" value="cassandra" style="shape=cylinder3;whiteSpace=wrap;html=1;boundedLbl=1;backgroundOutline=1;size=9;align=center;fillColor=#6a00ff;fontColor=#ffffff;strokeColor=#E6E6E6;" parent="SpS28PxbXEsLv8NFBt8i-1" vertex="1">
          <mxGeometry x="-629" y="-805" width="65" height="40" as="geometry" />
        </mxCell>
        <mxCell id="I6OQf8j_G0AkKVuxYn7g-7" value="pgsql" style="shape=cylinder3;whiteSpace=wrap;html=1;boundedLbl=1;backgroundOutline=1;size=9;align=center;fillColor=#6a00ff;fontColor=#ffffff;strokeColor=#E6E6E6;" parent="SpS28PxbXEsLv8NFBt8i-1" vertex="1">
          <mxGeometry x="-558.5" y="-805" width="65" height="40" as="geometry" />
        </mxCell>
        <mxCell id="eJi1VW11xlN6MNZj9CmL-11" style="edgeStyle=orthogonalEdgeStyle;rounded=1;orthogonalLoop=1;jettySize=auto;html=1;fontColor=#000000;startArrow=none;startFill=0;endArrow=open;endFill=0;exitX=1;exitY=0.5;exitDx=0;exitDy=0;" parent="SpS28PxbXEsLv8NFBt8i-1" source="I6OQf8j_G0AkKVuxYn7g-41" edge="1">
          <mxGeometry relative="1" as="geometry">
            <mxPoint x="-442" y="-860" as="targetPoint" />
            <Array as="points">
              <mxPoint x="-247" y="-860" />
            </Array>
            <mxPoint x="-356.625" y="-877.8749999999999" as="sourcePoint" />
          </mxGeometry>
        </mxCell>
        <mxCell id="A-jZ1BCKDg5sLc0rEaCl-1" value="front end&lt;br&gt;(Phaser3)" style="rounded=0;whiteSpace=wrap;html=1;fillColor=#f5f5f5;strokeColor=#666666;fontColor=#333333;" parent="SpS28PxbXEsLv8NFBt8i-1" vertex="1">
          <mxGeometry x="-780" y="-480" width="120" height="40" as="geometry" />
        </mxCell>
        <mxCell id="A-jZ1BCKDg5sLc0rEaCl-8" style="edgeStyle=orthogonalEdgeStyle;rounded=0;orthogonalLoop=1;jettySize=auto;html=1;endArrow=open;endFill=0;" parent="SpS28PxbXEsLv8NFBt8i-1" source="A-jZ1BCKDg5sLc0rEaCl-3" target="A-jZ1BCKDg5sLc0rEaCl-4" edge="1">
          <mxGeometry relative="1" as="geometry" />
        </mxCell>
        <mxCell id="A-jZ1BCKDg5sLc0rEaCl-3" value="backend wrapper&lt;br&gt;(Python)" style="rounded=0;whiteSpace=wrap;html=1;fillColor=#cdeb8b;strokeColor=#82b366;" parent="SpS28PxbXEsLv8NFBt8i-1" vertex="1">
          <mxGeometry x="-619.5" y="-480" width="120" height="40" as="geometry" />
        </mxCell>
        <mxCell id="A-jZ1BCKDg5sLc0rEaCl-4" value="MAPF 算法&lt;br&gt;(C++)" style="rounded=0;whiteSpace=wrap;html=1;fillColor=#008a00;strokeColor=#005700;fontColor=#ffffff;" parent="SpS28PxbXEsLv8NFBt8i-1" vertex="1">
          <mxGeometry x="-460" y="-480" width="120" height="40" as="geometry" />
        </mxCell>
        <mxCell id="A-jZ1BCKDg5sLc0rEaCl-5" value="MAP Editor&lt;br&gt;(QT)" style="rounded=0;whiteSpace=wrap;html=1;fillColor=#f5f5f5;strokeColor=#666666;fontColor=#333333;" parent="SpS28PxbXEsLv8NFBt8i-1" vertex="1">
          <mxGeometry x="-780" y="-600" width="120" height="40" as="geometry" />
        </mxCell>
        <mxCell id="A-jZ1BCKDg5sLc0rEaCl-10" value="" style="rounded=0;orthogonalLoop=1;jettySize=auto;html=1;endArrow=none;startArrow=open;startFill=0;exitX=0;exitY=0.5;exitDx=0;exitDy=0;entryX=1;entryY=0.5;entryDx=0;entryDy=0;" parent="SpS28PxbXEsLv8NFBt8i-1" source="A-jZ1BCKDg5sLc0rEaCl-9" target="A-jZ1BCKDg5sLc0rEaCl-1" edge="1">
          <mxGeometry relative="1" as="geometry">
            <mxPoint x="-660" y="-460" as="sourcePoint" />
            <mxPoint x="-670" y="-440" as="targetPoint" />
          </mxGeometry>
        </mxCell>
        <mxCell id="A-jZ1BCKDg5sLc0rEaCl-9" value="" style="ellipse;whiteSpace=wrap;html=1;aspect=fixed;" parent="SpS28PxbXEsLv8NFBt8i-1" vertex="1">
          <mxGeometry x="-626.5" y="-466" width="12" height="12" as="geometry" />
        </mxCell>
        <mxCell id="A-jZ1BCKDg5sLc0rEaCl-11" value="REST" style="text;html=1;strokeColor=none;fillColor=none;align=center;verticalAlign=middle;whiteSpace=wrap;rounded=0;" parent="SpS28PxbXEsLv8NFBt8i-1" vertex="1">
          <mxGeometry x="-650.5" y="-463" width="60" height="30" as="geometry" />
        </mxCell>
        <mxCell id="A-jZ1BCKDg5sLc0rEaCl-12" value="MAP" style="shape=note;whiteSpace=wrap;html=1;backgroundOutline=1;darkOpacity=0.05;size=10;" parent="SpS28PxbXEsLv8NFBt8i-1" vertex="1">
          <mxGeometry x="-740" y="-540" width="40" height="40" as="geometry" />
        </mxCell>
        <mxCell id="A-jZ1BCKDg5sLc0rEaCl-14" value="" style="rounded=0;orthogonalLoop=1;jettySize=auto;html=1;endArrow=none;startArrow=blockThin;startFill=1;entryX=0.5;entryY=1;entryDx=0;entryDy=0;" parent="SpS28PxbXEsLv8NFBt8i-1" source="A-jZ1BCKDg5sLc0rEaCl-12" target="A-jZ1BCKDg5sLc0rEaCl-5" edge="1">
          <mxGeometry relative="1" as="geometry">
            <mxPoint x="-625.5" y="-580.29" as="sourcePoint" />
            <mxPoint x="-659" y="-580.29" as="targetPoint" />
          </mxGeometry>
        </mxCell>
        <mxCell id="A-jZ1BCKDg5sLc0rEaCl-16" style="edgeStyle=none;rounded=0;orthogonalLoop=1;jettySize=auto;html=1;startArrow=none;startFill=0;endArrow=blockThin;endFill=1;" parent="SpS28PxbXEsLv8NFBt8i-1" source="A-jZ1BCKDg5sLc0rEaCl-15" target="A-jZ1BCKDg5sLc0rEaCl-5" edge="1">
          <mxGeometry relative="1" as="geometry" />
        </mxCell>
        <mxCell id="A-jZ1BCKDg5sLc0rEaCl-15" value="CAD" style="shape=note;whiteSpace=wrap;html=1;backgroundOutline=1;darkOpacity=0.05;size=10;" parent="SpS28PxbXEsLv8NFBt8i-1" vertex="1">
          <mxGeometry x="-740" y="-660" width="40" height="40" as="geometry" />
        </mxCell>
        <mxCell id="A-jZ1BCKDg5sLc0rEaCl-17" value="upload" style="rounded=0;orthogonalLoop=1;jettySize=auto;html=1;endArrow=none;startArrow=blockThin;startFill=1;entryX=0.5;entryY=1;entryDx=0;entryDy=0;exitX=0.5;exitY=0;exitDx=0;exitDy=0;entryPerimeter=0;" parent="SpS28PxbXEsLv8NFBt8i-1" source="A-jZ1BCKDg5sLc0rEaCl-1" target="A-jZ1BCKDg5sLc0rEaCl-12" edge="1">
          <mxGeometry y="-30" relative="1" as="geometry">
            <mxPoint x="-710" y="-530" as="sourcePoint" />
            <mxPoint x="-710" y="-550" as="targetPoint" />
            <mxPoint as="offset" />
          </mxGeometry>
        </mxCell>
        <mxCell id="gB-dcHAySAIjkF693FjD-0" value="&lt;b&gt;路径规划服务软件技术架构&lt;/b&gt;&lt;br&gt;1）地图编辑器用QT编写，导入CAD精准尺寸的位图文件，人工编辑输出为MAP文件，通过前端上传后台；&lt;br&gt;2）前端仿真与后台规划采用REST接口解耦，前端实现动画仿真，后端实现路径规划；&lt;br&gt;3）路径规划服务软件核心算法采用C++实现，不同的算法以本地进程实现，由后端Python封装并实现业务逻辑，供前端调用。" style="text;html=1;strokeColor=none;fillColor=none;align=left;verticalAlign=middle;whiteSpace=wrap;rounded=0;" parent="SpS28PxbXEsLv8NFBt8i-1" vertex="1">
          <mxGeometry x="-640" y="-610" width="300" height="60" as="geometry" />
        </mxCell>
        <mxCell id="gB-dcHAySAIjkF693FjD-1" value="" style="rounded=0;whiteSpace=wrap;html=1;fillColor=none;" parent="SpS28PxbXEsLv8NFBt8i-1" vertex="1">
          <mxGeometry x="-800" y="-360" width="480" height="260" as="geometry" />
        </mxCell>
        <mxCell id="gB-dcHAySAIjkF693FjD-2" value="&lt;b&gt;front end 事前功能架构&lt;/b&gt;&lt;br&gt;1）呈现任务列表弹窗-&amp;gt;任务的详细导航配置（避让策略、优先级策略）；&lt;br&gt;2）呈现车辆列表弹窗（虚拟车辆）-&amp;gt;车辆的详细配置约束（电量管理、内部容量等阈值）；&lt;br&gt;&lt;font color=&quot;#b3b3b3&quot;&gt;3）内建货物管理和运输逻辑（供给约束、车辆容量约束、物资消耗约束）——本期不考虑；&lt;/font&gt;&lt;br&gt;4）呈现告警和事件列表弹窗；&lt;br&gt;5）呈现统计报表（按任务和车辆统计）；&lt;br&gt;6）呈现库区态势（货架、物资、车辆、充电桩）的属性静态信息、时序动态数据。&lt;br&gt;&lt;br&gt;&lt;b&gt;front end 事中功能架构&lt;/b&gt;&lt;br&gt;&lt;font color=&quot;#b3b3b3&quot;&gt;1）态势（虚拟车辆与实际车辆已经绑定）；&lt;br&gt;2）呈现任务的跟踪视频弹窗；&lt;br&gt;3）呈现计划与实际的偏离图。&lt;/font&gt;" style="text;html=1;strokeColor=none;fillColor=none;align=left;verticalAlign=top;whiteSpace=wrap;rounded=0;" parent="SpS28PxbXEsLv8NFBt8i-1" vertex="1">
          <mxGeometry x="-630" y="-350" width="300" height="240" as="geometry" />
        </mxCell>
        <mxCell id="gB-dcHAySAIjkF693FjD-3" value="R7" style="edgeStyle=orthogonalEdgeStyle;rounded=1;orthogonalLoop=1;jettySize=auto;html=1;fontColor=#000000;startArrow=none;startFill=0;endArrow=open;endFill=0;exitX=0.75;exitY=0;exitDx=0;exitDy=0;entryX=0.75;entryY=1;entryDx=0;entryDy=0;" parent="SpS28PxbXEsLv8NFBt8i-1" source="YY10UkN6TRAArKnKFLUS-1" target="I6OQf8j_G0AkKVuxYn7g-41" edge="1">
          <mxGeometry relative="1" as="geometry">
            <mxPoint x="-292" y="-910" as="targetPoint" />
            <mxPoint x="-250.5" y="-943" as="sourcePoint" />
          </mxGeometry>
        </mxCell>
        <mxCell id="3oHTJWdzaxspmr2NWUPC-0" value="" style="rounded=0;whiteSpace=wrap;html=1;fillColor=none;dashed=1;" parent="SpS28PxbXEsLv8NFBt8i-1" vertex="1">
          <mxGeometry x="-820" y="-930" width="118" height="160" as="geometry" />
        </mxCell>
        <mxCell id="3oHTJWdzaxspmr2NWUPC-1" value="R8" style="edgeStyle=orthogonalEdgeStyle;rounded=1;orthogonalLoop=1;jettySize=auto;html=1;fontColor=#000000;startArrow=none;startFill=0;endArrow=open;endFill=0;exitX=1;exitY=0.75;exitDx=0;exitDy=0;entryX=0;entryY=0.75;entryDx=0;entryDy=0;" parent="SpS28PxbXEsLv8NFBt8i-1" source="3oHTJWdzaxspmr2NWUPC-0" target="I6OQf8j_G0AkKVuxYn7g-5" edge="1">
          <mxGeometry relative="1" as="geometry">
            <mxPoint x="-632" y="-820" as="targetPoint" />
            <mxPoint x="-356.5" y="-879" as="sourcePoint" />
          </mxGeometry>
        </mxCell>
      </root>
    </mxGraphModel>
  </diagram>
  <diagram id="kfsu4qBpYvVPvuOzxLfz" name="路径规划扩展性">
    <mxGraphModel dx="2843" dy="1591" grid="1" gridSize="10" guides="1" tooltips="1" connect="1" arrows="1" fold="1" page="1" pageScale="1" pageWidth="1169" pageHeight="827" math="0" shadow="0">
      <root>
        <mxCell id="0" />
        <mxCell id="1" parent="0" />
        <mxCell id="qFkZmkRryf3bl7cXFp6i-2" style="edgeStyle=orthogonalEdgeStyle;rounded=0;orthogonalLoop=1;jettySize=auto;html=1;endArrow=open;endFill=0;" parent="1" source="qFkZmkRryf3bl7cXFp6i-1" target="N7MiqraXV8tNYL-wjC6y-4" edge="1">
          <mxGeometry relative="1" as="geometry" />
        </mxCell>
        <mxCell id="qFkZmkRryf3bl7cXFp6i-4" style="edgeStyle=orthogonalEdgeStyle;rounded=0;orthogonalLoop=1;jettySize=auto;html=1;endArrow=open;endFill=0;" parent="1" source="qFkZmkRryf3bl7cXFp6i-1" target="qFkZmkRryf3bl7cXFp6i-3" edge="1">
          <mxGeometry relative="1" as="geometry" />
        </mxCell>
        <mxCell id="qFkZmkRryf3bl7cXFp6i-1" value="任务管控服务后台" style="rounded=0;whiteSpace=wrap;html=1;fillColor=#f5f5f5;strokeColor=#666666;fontColor=#333333;" parent="1" vertex="1">
          <mxGeometry x="-1000" y="-400" width="360" height="40" as="geometry" />
        </mxCell>
        <mxCell id="N7MiqraXV8tNYL-wjC6y-1" value="AGV路径规划（1.0）" style="rounded=0;whiteSpace=wrap;html=1;fillColor=#f5f5f5;fontColor=#333333;strokeColor=#666666;" parent="1" vertex="1">
          <mxGeometry x="-350" y="-320" width="50" height="120" as="geometry" />
        </mxCell>
        <mxCell id="N7MiqraXV8tNYL-wjC6y-2" value="前端页面" style="rounded=0;whiteSpace=wrap;html=1;fillColor=#f5f5f5;strokeColor=#666666;fontColor=#333333;" parent="1" vertex="1">
          <mxGeometry x="-1000" y="-480" width="360" height="40" as="geometry" />
        </mxCell>
        <mxCell id="N7MiqraXV8tNYL-wjC6y-3" style="edgeStyle=orthogonalEdgeStyle;rounded=0;orthogonalLoop=1;jettySize=auto;html=1;endArrow=open;endFill=0;exitX=0.5;exitY=1;exitDx=0;exitDy=0;" parent="1" source="N7MiqraXV8tNYL-wjC6y-4" target="N7MiqraXV8tNYL-wjC6y-5" edge="1">
          <mxGeometry relative="1" as="geometry" />
        </mxCell>
        <mxCell id="N7MiqraXV8tNYL-wjC6y-4" value="路径规划&lt;br&gt;后台微服务" style="rounded=0;whiteSpace=wrap;html=1;fillColor=#cdeb8b;strokeColor=#82b366;" parent="1" vertex="1">
          <mxGeometry x="-600" y="-400" width="360" height="40" as="geometry" />
        </mxCell>
        <mxCell id="N7MiqraXV8tNYL-wjC6y-5" value="MAPF 算法框架（2.0）" style="rounded=0;whiteSpace=wrap;html=1;fillColor=#008a00;strokeColor=#005700;fontColor=#ffffff;verticalAlign=top;" parent="1" vertex="1">
          <mxGeometry x="-600" y="-320" width="240" height="120" as="geometry" />
        </mxCell>
        <mxCell id="N7MiqraXV8tNYL-wjC6y-7" value="" style="rounded=0;orthogonalLoop=1;jettySize=auto;html=1;endArrow=none;startArrow=open;startFill=0;exitX=0.5;exitY=0;exitDx=0;exitDy=0;entryX=0.5;entryY=1;entryDx=0;entryDy=0;" parent="1" source="N7MiqraXV8tNYL-wjC6y-8" target="N7MiqraXV8tNYL-wjC6y-2" edge="1">
          <mxGeometry relative="1" as="geometry">
            <mxPoint x="-980" y="-380" as="sourcePoint" />
            <mxPoint x="-990" y="-360" as="targetPoint" />
          </mxGeometry>
        </mxCell>
        <mxCell id="N7MiqraXV8tNYL-wjC6y-8" value="" style="ellipse;whiteSpace=wrap;html=1;aspect=fixed;" parent="1" vertex="1">
          <mxGeometry x="-826" y="-410" width="12" height="12" as="geometry" />
        </mxCell>
        <mxCell id="N7MiqraXV8tNYL-wjC6y-9" value="REST接口" style="text;html=1;strokeColor=none;fillColor=none;align=center;verticalAlign=middle;whiteSpace=wrap;rounded=0;" parent="1" vertex="1">
          <mxGeometry x="-886" y="-428" width="60" height="30" as="geometry" />
        </mxCell>
        <mxCell id="N7MiqraXV8tNYL-wjC6y-16" value="单批多智能体寻径（CBS+）" style="rounded=0;whiteSpace=wrap;html=1;fillColor=#0050ef;strokeColor=#001DBC;fontColor=#ffffff;" parent="1" vertex="1">
          <mxGeometry x="-584" y="-250" width="110" height="30" as="geometry" />
        </mxCell>
        <mxCell id="N7MiqraXV8tNYL-wjC6y-17" value="在线多智能体实时寻径（PIBT）" style="rounded=0;whiteSpace=wrap;html=1;fillColor=#0050ef;strokeColor=#001DBC;fontColor=#ffffff;" parent="1" vertex="1">
          <mxGeometry x="-584" y="-290" width="110" height="30" as="geometry" />
        </mxCell>
        <mxCell id="N7MiqraXV8tNYL-wjC6y-18" value="深度强化学习的AI规划&lt;br&gt;（Q-Learning）" style="rounded=1;whiteSpace=wrap;html=1;arcSize=9;fillColor=#647687;fontColor=#ffffff;strokeColor=#314354;" parent="1" vertex="1">
          <mxGeometry x="-460" y="-290" width="90" height="70" as="geometry" />
        </mxCell>
        <mxCell id="N7MiqraXV8tNYL-wjC6y-19" style="edgeStyle=orthogonalEdgeStyle;rounded=0;orthogonalLoop=1;jettySize=auto;html=1;endArrow=open;endFill=0;entryX=0.5;entryY=0;entryDx=0;entryDy=0;exitX=0.5;exitY=1;exitDx=0;exitDy=0;" parent="1" source="N7MiqraXV8tNYL-wjC6y-4" target="N7MiqraXV8tNYL-wjC6y-1" edge="1">
          <mxGeometry relative="1" as="geometry">
            <mxPoint x="-470" y="-350" as="sourcePoint" />
            <mxPoint x="-470" y="-310" as="targetPoint" />
          </mxGeometry>
        </mxCell>
        <mxCell id="N7MiqraXV8tNYL-wjC6y-20" value="第三方路径规划软件" style="rounded=0;whiteSpace=wrap;html=1;fillColor=#f5f5f5;fontColor=#333333;strokeColor=#666666;" parent="1" vertex="1">
          <mxGeometry x="-290" y="-320" width="50" height="120" as="geometry" />
        </mxCell>
        <mxCell id="N7MiqraXV8tNYL-wjC6y-21" style="edgeStyle=orthogonalEdgeStyle;rounded=0;orthogonalLoop=1;jettySize=auto;html=1;endArrow=open;endFill=0;entryX=0.5;entryY=0;entryDx=0;entryDy=0;exitX=0.5;exitY=1;exitDx=0;exitDy=0;" parent="1" source="N7MiqraXV8tNYL-wjC6y-4" target="N7MiqraXV8tNYL-wjC6y-20" edge="1">
          <mxGeometry relative="1" as="geometry">
            <mxPoint x="-410" y="-350" as="sourcePoint" />
            <mxPoint x="-315" y="-310" as="targetPoint" />
          </mxGeometry>
        </mxCell>
        <mxCell id="qFkZmkRryf3bl7cXFp6i-3" value="关系数据库" style="shape=cylinder3;whiteSpace=wrap;html=1;boundedLbl=1;backgroundOutline=1;size=15;" parent="1" vertex="1">
          <mxGeometry x="-880" y="-320" width="120" height="50" as="geometry" />
        </mxCell>
      </root>
    </mxGraphModel>
  </diagram>
  <diagram id="UUMJ-S497tYkq5fYKbEb" name="软件架构">
    <mxGraphModel dx="2603" dy="2418" grid="1" gridSize="10" guides="1" tooltips="1" connect="1" arrows="1" fold="1" page="1" pageScale="1" pageWidth="1169" pageHeight="827" math="0" shadow="0">
      <root>
        <mxCell id="0" />
        <mxCell id="1" parent="0" />
        <mxCell id="UngLJKZK5I7HqNwRM2Nm-2" value="" style="rounded=1;whiteSpace=wrap;html=1;arcSize=6;" parent="1" vertex="1">
          <mxGeometry x="-542.75" y="-1113" width="262.75" height="163" as="geometry" />
        </mxCell>
        <mxCell id="WL0Z6mfd9qGDZ-XOkAQL-6" value="" style="rounded=1;whiteSpace=wrap;html=1;arcSize=6;" parent="1" vertex="1">
          <mxGeometry x="-780" y="-966" width="160" height="106" as="geometry" />
        </mxCell>
        <mxCell id="4kcec0tlmJGYN745x8OT-50" value="" style="rounded=0;whiteSpace=wrap;html=1;fillColor=none;dashed=1;container=1;" parent="1" vertex="1">
          <mxGeometry x="-960" y="-1007" width="118" height="160" as="geometry" />
        </mxCell>
        <mxCell id="4kcec0tlmJGYN745x8OT-1" value="" style="rounded=0;whiteSpace=wrap;html=1;" parent="1" vertex="1">
          <mxGeometry x="-258.75" y="-1207" width="166.75" height="400" as="geometry" />
        </mxCell>
        <mxCell id="4kcec0tlmJGYN745x8OT-2" value="" style="edgeStyle=orthogonalEdgeStyle;rounded=1;orthogonalLoop=1;jettySize=auto;html=1;entryX=0;entryY=0.25;entryDx=0;entryDy=0;fontColor=#000000;startArrow=open;startFill=0;endArrow=classicThin;endFill=1;exitX=1;exitY=0.75;exitDx=0;exitDy=0;" parent="1" source="4kcec0tlmJGYN745x8OT-37" target="4kcec0tlmJGYN745x8OT-6" edge="1">
          <mxGeometry relative="1" as="geometry">
            <mxPoint x="-884" y="-977" as="sourcePoint" />
          </mxGeometry>
        </mxCell>
        <mxCell id="4kcec0tlmJGYN745x8OT-5" value="R3" style="edgeStyle=orthogonalEdgeStyle;rounded=1;orthogonalLoop=1;jettySize=auto;html=1;fontColor=#000000;startArrow=none;startFill=0;endArrow=oval;endFill=0;labelBackgroundColor=none;" parent="1" edge="1">
          <mxGeometry x="1" y="-10" relative="1" as="geometry">
            <mxPoint x="-597.5" y="-936" as="targetPoint" />
            <mxPoint as="offset" />
            <mxPoint x="-633.5" y="-936" as="sourcePoint" />
          </mxGeometry>
        </mxCell>
        <mxCell id="4kcec0tlmJGYN745x8OT-6" value="物联网" style="rounded=0;whiteSpace=wrap;html=1;align=center;fillColor=#B3B3B3;strokeColor=#000000;fontColor=#000000;fillStyle=hatch;" parent="1" vertex="1">
          <mxGeometry x="-767.5" y="-960" width="134" height="40" as="geometry" />
        </mxCell>
        <mxCell id="4kcec0tlmJGYN745x8OT-7" value="" style="edgeStyle=orthogonalEdgeStyle;rounded=1;orthogonalLoop=1;jettySize=auto;html=1;entryX=0;entryY=0.25;entryDx=0;entryDy=0;fontColor=#000000;startArrow=open;startFill=0;endArrow=classicThin;endFill=1;exitX=1;exitY=0.5;exitDx=0;exitDy=0;" parent="1" source="4kcec0tlmJGYN745x8OT-38" target="4kcec0tlmJGYN745x8OT-6" edge="1">
          <mxGeometry relative="1" as="geometry">
            <mxPoint x="-902" y="-970" as="sourcePoint" />
            <mxPoint x="-741.5" y="-940" as="targetPoint" />
          </mxGeometry>
        </mxCell>
        <mxCell id="4kcec0tlmJGYN745x8OT-8" value="R4" style="edgeStyle=orthogonalEdgeStyle;rounded=1;orthogonalLoop=1;jettySize=auto;html=1;fontColor=#000000;startArrow=none;startFill=0;endArrow=oval;endFill=0;labelBackgroundColor=none;" parent="1" source="4kcec0tlmJGYN745x8OT-9" edge="1">
          <mxGeometry x="1" y="20" relative="1" as="geometry">
            <mxPoint x="-597" y="-1114" as="targetPoint" />
            <mxPoint as="offset" />
          </mxGeometry>
        </mxCell>
        <mxCell id="4kcec0tlmJGYN745x8OT-9" value="流媒体服务" style="rounded=0;whiteSpace=wrap;html=1;fontColor=#000000;fillColor=#B3B3B3;fillStyle=hatch;strokeColor=#000000;" parent="1" vertex="1">
          <mxGeometry x="-767" y="-1050" width="69" height="40" as="geometry" />
        </mxCell>
        <mxCell id="4kcec0tlmJGYN745x8OT-10" value="GB28181" style="edgeStyle=orthogonalEdgeStyle;rounded=1;jumpStyle=arc;orthogonalLoop=1;jettySize=auto;html=1;startArrow=open;startFill=0;endArrow=open;endFill=0;exitX=0.5;exitY=1;exitDx=0;exitDy=0;entryX=0;entryY=0.5;entryDx=0;entryDy=0;" parent="1" source="4kcec0tlmJGYN745x8OT-39" target="4kcec0tlmJGYN745x8OT-9" edge="1">
          <mxGeometry relative="1" as="geometry">
            <mxPoint x="-896.76" y="-1050" as="sourcePoint" />
            <mxPoint x="-1007.5" y="-1010" as="targetPoint" />
          </mxGeometry>
        </mxCell>
        <mxCell id="4kcec0tlmJGYN745x8OT-11" style="edgeStyle=orthogonalEdgeStyle;rounded=1;jumpStyle=arc;orthogonalLoop=1;jettySize=auto;html=1;startArrow=open;startFill=0;endArrow=none;endFill=0;exitX=0.5;exitY=0;exitDx=0;exitDy=0;entryX=0.5;entryY=1;entryDx=0;entryDy=0;" parent="1" source="4kcec0tlmJGYN745x8OT-9" target="4kcec0tlmJGYN745x8OT-40" edge="1">
          <mxGeometry relative="1" as="geometry">
            <mxPoint x="-902" y="-1039.9714285714285" as="sourcePoint" />
            <mxPoint x="-732.5" y="-1160" as="targetPoint" />
          </mxGeometry>
        </mxCell>
        <mxCell id="4kcec0tlmJGYN745x8OT-12" style="edgeStyle=orthogonalEdgeStyle;rounded=1;jumpStyle=arc;orthogonalLoop=1;jettySize=auto;html=1;startArrow=none;startFill=0;endArrow=doubleBlock;endFill=1;exitX=1;exitY=0.25;exitDx=0;exitDy=0;entryX=0;entryY=0.5;entryDx=0;entryDy=0;" parent="1" source="4kcec0tlmJGYN745x8OT-39" target="4kcec0tlmJGYN745x8OT-40" edge="1">
          <mxGeometry relative="1" as="geometry">
            <mxPoint x="-887.5" y="-1090" as="sourcePoint" />
            <mxPoint x="-767.5" y="-1095" as="targetPoint" />
          </mxGeometry>
        </mxCell>
        <mxCell id="4kcec0tlmJGYN745x8OT-13" style="edgeStyle=orthogonalEdgeStyle;rounded=1;jumpStyle=arc;orthogonalLoop=1;jettySize=auto;html=1;startArrow=none;startFill=0;endArrow=doubleBlock;endFill=1;exitX=1;exitY=0.75;exitDx=0;exitDy=0;entryX=0;entryY=0.25;entryDx=0;entryDy=0;" parent="1" source="4kcec0tlmJGYN745x8OT-39" target="4kcec0tlmJGYN745x8OT-9" edge="1">
          <mxGeometry relative="1" as="geometry">
            <mxPoint x="-857.5" y="-1030" as="sourcePoint" />
            <mxPoint x="-797.5" y="-1040" as="targetPoint" />
          </mxGeometry>
        </mxCell>
        <mxCell id="4kcec0tlmJGYN745x8OT-14" style="edgeStyle=orthogonalEdgeStyle;rounded=1;jumpStyle=arc;orthogonalLoop=1;jettySize=auto;html=1;startArrow=none;startFill=0;endArrow=classicThin;endFill=1;exitX=1;exitY=0.5;exitDx=0;exitDy=0;" parent="1" source="4kcec0tlmJGYN745x8OT-40" edge="1">
          <mxGeometry relative="1" as="geometry">
            <mxPoint x="-902" y="-1056" as="sourcePoint" />
            <mxPoint x="-667.5" y="-960" as="targetPoint" />
          </mxGeometry>
        </mxCell>
        <mxCell id="4kcec0tlmJGYN745x8OT-15" style="edgeStyle=orthogonalEdgeStyle;rounded=1;orthogonalLoop=1;jettySize=auto;html=1;fontColor=#000000;startArrow=none;startFill=0;endArrow=open;endFill=0;exitX=1;exitY=0.5;exitDx=0;exitDy=0;" parent="1" source="4kcec0tlmJGYN745x8OT-35" edge="1">
          <mxGeometry relative="1" as="geometry">
            <mxPoint x="-582" y="-937" as="targetPoint" />
            <Array as="points">
              <mxPoint x="-507" y="-937" />
            </Array>
          </mxGeometry>
        </mxCell>
        <mxCell id="4kcec0tlmJGYN745x8OT-16" value="R5" style="edgeStyle=orthogonalEdgeStyle;rounded=1;orthogonalLoop=1;jettySize=auto;html=1;fontColor=#000000;startArrow=none;startFill=0;endArrow=oval;endFill=0;labelBackgroundColor=none;" parent="1" edge="1">
          <mxGeometry x="0.5522" y="14" relative="1" as="geometry">
            <mxPoint x="-597.5" y="-1126.25" as="targetPoint" />
            <mxPoint x="-698" y="-1126.25" as="sourcePoint" />
            <mxPoint as="offset" />
          </mxGeometry>
        </mxCell>
        <mxCell id="4kcec0tlmJGYN745x8OT-17" style="edgeStyle=orthogonalEdgeStyle;rounded=1;orthogonalLoop=1;jettySize=auto;html=1;fontColor=#000000;startArrow=none;startFill=0;endArrow=open;endFill=0;exitX=0;exitY=0.5;exitDx=0;exitDy=0;" parent="1" source="WL0Z6mfd9qGDZ-XOkAQL-1" edge="1">
          <mxGeometry relative="1" as="geometry">
            <mxPoint x="-577.5" y="-1120" as="targetPoint" />
            <mxPoint x="-440.5" y="-950" as="sourcePoint" />
            <Array as="points">
              <mxPoint x="-318" y="-1120" />
            </Array>
          </mxGeometry>
        </mxCell>
        <mxCell id="4kcec0tlmJGYN745x8OT-18" value="计划&lt;br&gt;调度" style="rounded=0;whiteSpace=wrap;html=1;shadow=0;labelBackgroundColor=none;labelPosition=center;verticalLabelPosition=middle;align=center;verticalAlign=middle;horizontal=0;rotation=90;" parent="1" vertex="1">
          <mxGeometry x="-464" y="-1052" width="130" height="42" as="geometry" />
        </mxCell>
        <mxCell id="4kcec0tlmJGYN745x8OT-19" value="R6" style="edgeStyle=orthogonalEdgeStyle;rounded=1;orthogonalLoop=1;jettySize=auto;html=1;fontColor=#000000;startArrow=none;startFill=0;endArrow=open;endFill=0;exitX=0.25;exitY=1;exitDx=0;exitDy=0;entryX=0.25;entryY=0;entryDx=0;entryDy=0;" parent="1" source="4kcec0tlmJGYN745x8OT-18" target="4kcec0tlmJGYN745x8OT-35" edge="1">
          <mxGeometry relative="1" as="geometry">
            <mxPoint x="-477.5" y="-1030" as="targetPoint" />
            <mxPoint x="-507.5" y="-1020" as="sourcePoint" />
          </mxGeometry>
        </mxCell>
        <mxCell id="4kcec0tlmJGYN745x8OT-20" value="REST调用" style="edgeStyle=orthogonalEdgeStyle;rounded=1;orthogonalLoop=1;jettySize=auto;html=1;fontColor=#000000;startArrow=none;startFill=0;endArrow=open;endFill=0;exitX=0;exitY=0.5;exitDx=0;exitDy=0;entryX=1;entryY=0.5;entryDx=0;entryDy=0;verticalAlign=top;labelBackgroundColor=none;labelPosition=center;verticalLabelPosition=bottom;align=center;" parent="1" edge="1">
          <mxGeometry relative="1" as="geometry">
            <mxPoint x="-195" y="-921.12" as="targetPoint" />
            <mxPoint x="-155" y="-921.12" as="sourcePoint" />
          </mxGeometry>
        </mxCell>
        <mxCell id="4kcec0tlmJGYN745x8OT-21" value="MQTT数据" style="edgeStyle=orthogonalEdgeStyle;rounded=1;orthogonalLoop=1;jettySize=auto;html=1;fontColor=#000000;startArrow=none;startFill=0;endArrow=classicThin;endFill=1;exitX=0;exitY=0.5;exitDx=0;exitDy=0;entryX=1;entryY=0.5;entryDx=0;entryDy=0;verticalAlign=top;labelBackgroundColor=none;labelPosition=center;verticalLabelPosition=bottom;align=center;" parent="1" edge="1">
          <mxGeometry relative="1" as="geometry">
            <mxPoint x="-196" y="-851" as="targetPoint" />
            <mxPoint x="-156" y="-851" as="sourcePoint" />
          </mxGeometry>
        </mxCell>
        <mxCell id="4kcec0tlmJGYN745x8OT-22" value="视频流数据" style="edgeStyle=orthogonalEdgeStyle;rounded=1;orthogonalLoop=1;jettySize=auto;html=1;fontColor=#000000;startArrow=none;startFill=0;endArrow=doubleBlock;endFill=1;exitX=0;exitY=0.5;exitDx=0;exitDy=0;entryX=1;entryY=0.5;entryDx=0;entryDy=0;verticalAlign=top;labelBackgroundColor=none;labelPosition=center;verticalLabelPosition=bottom;align=center;" parent="1" edge="1">
          <mxGeometry relative="1" as="geometry">
            <mxPoint x="-196" y="-886.5" as="targetPoint" />
            <mxPoint x="-156" y="-886.5" as="sourcePoint" />
          </mxGeometry>
        </mxCell>
        <mxCell id="4kcec0tlmJGYN745x8OT-23" value="M1" style="text;html=1;strokeColor=none;fillColor=none;align=center;verticalAlign=middle;whiteSpace=wrap;rounded=0;labelBackgroundColor=none;fontColor=#000000;fontSize=8;" parent="1" vertex="1">
          <mxGeometry x="-815" y="-987" width="60" height="30" as="geometry" />
        </mxCell>
        <mxCell id="4kcec0tlmJGYN745x8OT-24" value="V1" style="text;html=1;strokeColor=none;fillColor=none;align=center;verticalAlign=middle;whiteSpace=wrap;rounded=0;labelBackgroundColor=none;fontColor=#000000;fontSize=8;" parent="1" vertex="1">
          <mxGeometry x="-815" y="-1122" width="60" height="30" as="geometry" />
        </mxCell>
        <mxCell id="4kcec0tlmJGYN745x8OT-25" value="M2" style="text;html=1;strokeColor=none;fillColor=none;align=center;verticalAlign=middle;whiteSpace=wrap;rounded=0;labelBackgroundColor=none;fontColor=#000000;fontSize=8;" parent="1" vertex="1">
          <mxGeometry x="-714" y="-987" width="60" height="30" as="geometry" />
        </mxCell>
        <mxCell id="4kcec0tlmJGYN745x8OT-26" value="R1" style="text;html=1;strokeColor=none;fillColor=none;align=center;verticalAlign=middle;whiteSpace=wrap;rounded=0;labelBackgroundColor=none;fontColor=#000000;fontSize=8;" parent="1" vertex="1">
          <mxGeometry x="-894" y="-903" width="60" height="30" as="geometry" />
        </mxCell>
        <mxCell id="4kcec0tlmJGYN745x8OT-27" value="R2" style="text;html=1;strokeColor=none;fillColor=none;align=center;verticalAlign=middle;whiteSpace=wrap;rounded=0;labelBackgroundColor=none;fontColor=#000000;fontSize=8;" parent="1" vertex="1">
          <mxGeometry x="-894" y="-981" width="60" height="30" as="geometry" />
        </mxCell>
        <mxCell id="4kcec0tlmJGYN745x8OT-28" value="V2" style="text;html=1;strokeColor=none;fillColor=none;align=center;verticalAlign=middle;whiteSpace=wrap;rounded=0;labelBackgroundColor=none;fontColor=#000000;fontSize=8;" parent="1" vertex="1">
          <mxGeometry x="-815" y="-1067" width="60" height="30" as="geometry" />
        </mxCell>
        <mxCell id="4kcec0tlmJGYN745x8OT-29" value="V3" style="text;html=1;strokeColor=none;fillColor=none;align=center;verticalAlign=middle;whiteSpace=wrap;rounded=0;labelBackgroundColor=none;fontColor=#000000;fontSize=8;" parent="1" vertex="1">
          <mxGeometry x="-815" y="-1020" width="60" height="30" as="geometry" />
        </mxCell>
        <mxCell id="4kcec0tlmJGYN745x8OT-30" value="ZZ业务应用&lt;br&gt;ZD业务应用&lt;br&gt;（大调度）" style="text;html=1;strokeColor=none;fillColor=none;align=center;verticalAlign=middle;whiteSpace=wrap;rounded=0;" parent="1" vertex="1">
          <mxGeometry x="-410" y="-1240" width="100.5" height="30" as="geometry" />
        </mxCell>
        <mxCell id="4kcec0tlmJGYN745x8OT-31" value="运维保障&lt;br&gt;出入库业务&lt;br&gt;（小调度）" style="text;html=1;strokeColor=none;fillColor=none;align=center;verticalAlign=middle;whiteSpace=wrap;rounded=0;" parent="1" vertex="1">
          <mxGeometry x="-547.75" y="-1240" width="100.5" height="30" as="geometry" />
        </mxCell>
        <mxCell id="4kcec0tlmJGYN745x8OT-32" value="物联网" style="text;html=1;strokeColor=none;fillColor=none;align=center;verticalAlign=middle;whiteSpace=wrap;rounded=0;" parent="1" vertex="1">
          <mxGeometry x="-750.75" y="-1240" width="100.5" height="30" as="geometry" />
        </mxCell>
        <mxCell id="4kcec0tlmJGYN745x8OT-33" value="作业现场&lt;br&gt;（视频监控联动）&lt;br&gt;（AGV作业）&lt;br&gt;（自动巡检机器人）" style="text;html=1;strokeColor=none;fillColor=none;align=center;verticalAlign=middle;whiteSpace=wrap;rounded=0;" parent="1" vertex="1">
          <mxGeometry x="-944" y="-1240" width="117.5" height="30" as="geometry" />
        </mxCell>
        <mxCell id="4kcec0tlmJGYN745x8OT-35" value="路径规划仿真服务器" style="rounded=0;whiteSpace=wrap;html=1;shadow=0;labelBackgroundColor=none;fillColor=#cdeb8b;strokeColor=#36393d;labelPosition=center;verticalLabelPosition=middle;align=center;verticalAlign=middle;horizontal=0;rotation=90;" parent="1" vertex="1">
          <mxGeometry x="-571.5" y="-1052" width="130" height="42" as="geometry" />
        </mxCell>
        <mxCell id="4kcec0tlmJGYN745x8OT-36" value="" style="group;fillColor=none;fillStyle=auto;" parent="1" vertex="1" connectable="0">
          <mxGeometry x="-947" y="-1097" width="63" height="207" as="geometry" />
        </mxCell>
        <mxCell id="4kcec0tlmJGYN745x8OT-37" value="巡检机器人" style="rounded=0;whiteSpace=wrap;html=1;shadow=0;labelBackgroundColor=#ffffff;fillColor=#B3B3B3;labelPosition=center;verticalLabelPosition=bottom;align=center;verticalAlign=top;strokeColor=#36393d;fillStyle=auto;" parent="4kcec0tlmJGYN745x8OT-36" vertex="1">
          <mxGeometry y="107" width="63" height="20" as="geometry" />
        </mxCell>
        <mxCell id="4kcec0tlmJGYN745x8OT-38" value="运输型机器人" style="rounded=0;whiteSpace=wrap;html=1;shadow=0;labelBackgroundColor=#ffffff;fillColor=#B3B3B3;labelPosition=center;verticalLabelPosition=bottom;align=center;verticalAlign=top;strokeColor=#36393d;fillStyle=auto;" parent="4kcec0tlmJGYN745x8OT-36" vertex="1">
          <mxGeometry y="187" width="63" height="20" as="geometry" />
        </mxCell>
        <mxCell id="4kcec0tlmJGYN745x8OT-39" value="摄像头" style="rounded=0;whiteSpace=wrap;html=1;shadow=0;labelBackgroundColor=#ffffff;fillColor=#B3B3B3;labelPosition=center;verticalLabelPosition=top;align=center;verticalAlign=bottom;strokeColor=#36393d;horizontal=1;fillStyle=auto;" parent="4kcec0tlmJGYN745x8OT-36" vertex="1">
          <mxGeometry width="63" height="20" as="geometry" />
        </mxCell>
        <mxCell id="4kcec0tlmJGYN745x8OT-40" value="视频识别&lt;br&gt;服务" style="rounded=0;whiteSpace=wrap;html=1;align=center;fillColor=#B3B3B3;strokeColor=#000000;fontColor=#000000;verticalAlign=middle;fillStyle=hatch;" parent="1" vertex="1">
          <mxGeometry x="-767.5" y="-1147" width="70" height="42.5" as="geometry" />
        </mxCell>
        <mxCell id="4kcec0tlmJGYN745x8OT-41" value="物联网平台" style="rounded=0;html=1;shadow=0;labelBackgroundColor=#ffffff;fillColor=#B3B3B3;labelPosition=center;verticalLabelPosition=bottom;align=center;verticalAlign=top;strokeColor=#B3B3B3;fontColor=#000000;fillStyle=hatch;" parent="1" vertex="1">
          <mxGeometry x="-195.8005319148936" y="-1046" width="40.851063829787236" height="20" as="geometry" />
        </mxCell>
        <mxCell id="4kcec0tlmJGYN745x8OT-42" value="路径规划服务器" style="rounded=0;html=1;shadow=0;labelBackgroundColor=#ffffff;fillColor=#cdeb8b;strokeColor=#36393d;labelPosition=center;verticalLabelPosition=bottom;align=center;verticalAlign=top;" parent="1" vertex="1">
          <mxGeometry x="-195.8005319148936" y="-1096" width="40.851063829787236" height="20" as="geometry" />
        </mxCell>
        <mxCell id="4kcec0tlmJGYN745x8OT-43" value="任务管理与任务调度软件" style="rounded=0;html=1;shadow=0;labelBackgroundColor=#ffffff;labelPosition=center;verticalLabelPosition=bottom;align=center;verticalAlign=top;" parent="1" vertex="1">
          <mxGeometry x="-195.8005319148936" y="-1145" width="40.851063829787236" height="20" as="geometry" />
        </mxCell>
        <mxCell id="4kcec0tlmJGYN745x8OT-44" value="&lt;font color=&quot;#000000&quot;&gt;现场设备&lt;/font&gt;" style="rounded=0;html=1;shadow=0;labelBackgroundColor=#ffffff;fillColor=#B3B3B3;labelPosition=center;verticalLabelPosition=bottom;align=center;verticalAlign=top;strokeColor=#36393d;" parent="1" vertex="1">
          <mxGeometry x="-195.8005319148936" y="-997" width="40.851063829787236" height="20" as="geometry" />
        </mxCell>
        <mxCell id="4kcec0tlmJGYN745x8OT-45" value="作业现场的视频数据和传感器数据自动采集上传到物联网平台，路径规划服务器求解的路径规划方案通过物联网平台下发到现场作业设备，现场设备、物联网平台和路径规划服务器共同构成闭环的信息GK服务平台分系统，从而实现仓库作业任务的高效自动化执行，并提供智能监测功能，并与上层仓库管理、任务调度等业务系统无缝融合。" style="text;html=1;strokeColor=none;fillColor=none;align=left;verticalAlign=middle;whiteSpace=wrap;rounded=0;" parent="1" vertex="1">
          <mxGeometry x="-572.75" y="-892" width="283" height="60" as="geometry" />
        </mxCell>
        <mxCell id="4kcec0tlmJGYN745x8OT-46" value="cassandra" style="shape=cylinder3;whiteSpace=wrap;html=1;boundedLbl=1;backgroundOutline=1;size=9;align=center;fillColor=#B3B3B3;fontColor=#000000;strokeColor=#000000;fillStyle=hatch;" parent="1" vertex="1">
          <mxGeometry x="-769" y="-910" width="65" height="40" as="geometry" />
        </mxCell>
        <mxCell id="4kcec0tlmJGYN745x8OT-47" value="pgsql" style="shape=cylinder3;whiteSpace=wrap;html=1;boundedLbl=1;backgroundOutline=1;size=9;align=center;fillColor=#B3B3B3;fontColor=#000000;strokeColor=#000000;fillStyle=hatch;" parent="1" vertex="1">
          <mxGeometry x="-698.5" y="-910" width="65" height="40" as="geometry" />
        </mxCell>
        <mxCell id="4kcec0tlmJGYN745x8OT-48" style="edgeStyle=orthogonalEdgeStyle;rounded=1;orthogonalLoop=1;jettySize=auto;html=1;fontColor=#000000;startArrow=none;startFill=0;endArrow=open;endFill=0;exitX=1;exitY=0.5;exitDx=0;exitDy=0;" parent="1" source="4kcec0tlmJGYN745x8OT-18" edge="1">
          <mxGeometry relative="1" as="geometry">
            <mxPoint x="-582" y="-937" as="targetPoint" />
            <Array as="points">
              <mxPoint x="-399" y="-937" />
            </Array>
            <mxPoint x="-496.625" y="-954.8749999999999" as="sourcePoint" />
          </mxGeometry>
        </mxCell>
        <mxCell id="4kcec0tlmJGYN745x8OT-49" value="R7" style="edgeStyle=orthogonalEdgeStyle;rounded=1;orthogonalLoop=1;jettySize=auto;html=1;fontColor=#000000;startArrow=none;startFill=0;endArrow=open;endFill=0;exitX=0.75;exitY=0;exitDx=0;exitDy=0;entryX=0.75;entryY=1;entryDx=0;entryDy=0;" parent="1" source="4kcec0tlmJGYN745x8OT-35" target="4kcec0tlmJGYN745x8OT-18" edge="1">
          <mxGeometry relative="1" as="geometry">
            <mxPoint x="-432" y="-987" as="targetPoint" />
            <mxPoint x="-390.5" y="-1020" as="sourcePoint" />
          </mxGeometry>
        </mxCell>
        <mxCell id="4kcec0tlmJGYN745x8OT-51" value="R8" style="edgeStyle=orthogonalEdgeStyle;rounded=1;orthogonalLoop=1;jettySize=auto;html=1;fontColor=#000000;startArrow=none;startFill=0;endArrow=open;endFill=0;exitX=1;exitY=0.75;exitDx=0;exitDy=0;entryX=0;entryY=0.75;entryDx=0;entryDy=0;" parent="1" source="4kcec0tlmJGYN745x8OT-50" target="4kcec0tlmJGYN745x8OT-6" edge="1">
          <mxGeometry relative="1" as="geometry">
            <mxPoint x="-772" y="-897" as="targetPoint" />
            <mxPoint x="-496.5" y="-956" as="sourcePoint" />
          </mxGeometry>
        </mxCell>
        <mxCell id="WL0Z6mfd9qGDZ-XOkAQL-1" value="任务&lt;br&gt;管理" style="rounded=0;whiteSpace=wrap;html=1;shadow=0;labelBackgroundColor=none;labelPosition=center;verticalLabelPosition=middle;align=center;verticalAlign=middle;horizontal=0;rotation=90;" parent="1" vertex="1">
          <mxGeometry x="-382.75" y="-1052" width="130" height="42" as="geometry" />
        </mxCell>
        <mxCell id="WL0Z6mfd9qGDZ-XOkAQL-3" value="I1" style="edgeStyle=orthogonalEdgeStyle;rounded=1;orthogonalLoop=1;jettySize=auto;html=1;fontColor=#000000;startArrow=none;startFill=0;endArrow=open;endFill=0;exitX=0.5;exitY=1;exitDx=0;exitDy=0;verticalAlign=top;labelBackgroundColor=none;labelPosition=center;verticalLabelPosition=bottom;align=center;" parent="1" source="WL0Z6mfd9qGDZ-XOkAQL-1" target="4kcec0tlmJGYN745x8OT-18" edge="1">
          <mxGeometry relative="1" as="geometry">
            <mxPoint x="-380" y="-1046" as="targetPoint" />
            <mxPoint x="-340" y="-1046" as="sourcePoint" />
          </mxGeometry>
        </mxCell>
        <mxCell id="WL0Z6mfd9qGDZ-XOkAQL-4" value="browser" style="rounded=0;html=1;shadow=0;labelBackgroundColor=#ffffff;labelPosition=center;verticalLabelPosition=top;align=center;verticalAlign=bottom;" parent="1" vertex="1">
          <mxGeometry x="-421.55" y="-1168" width="123.6" height="20" as="geometry" />
        </mxCell>
        <mxCell id="WL0Z6mfd9qGDZ-XOkAQL-5" value="数字孪生" style="rounded=0;whiteSpace=wrap;html=1;fillColor=#dae8fc;strokeColor=#6c8ebf;dashed=1;dashPattern=8 8;" parent="1" vertex="1">
          <mxGeometry x="-821.5" y="-800" width="242" height="90" as="geometry" />
        </mxCell>
        <mxCell id="UngLJKZK5I7HqNwRM2Nm-1" value="UI front" style="text;html=1;strokeColor=none;fillColor=none;align=center;verticalAlign=middle;whiteSpace=wrap;rounded=0;" parent="1" vertex="1">
          <mxGeometry x="-389.75" y="-1173" width="60" height="30" as="geometry" />
        </mxCell>
        <mxCell id="NLaQ21TI9LHizgnP2AnN-1" value="" style="edgeStyle=orthogonalEdgeStyle;rounded=1;orthogonalLoop=1;jettySize=auto;html=1;fontColor=#000000;startArrow=classicThin;startFill=1;endArrow=classicThin;endFill=1;entryX=0.5;entryY=1;entryDx=0;entryDy=0;verticalAlign=top;labelBackgroundColor=none;labelPosition=center;verticalLabelPosition=bottom;align=center;" parent="1" source="WL0Z6mfd9qGDZ-XOkAQL-5" target="WL0Z6mfd9qGDZ-XOkAQL-6" edge="1">
          <mxGeometry relative="1" as="geometry">
            <mxPoint x="-690.25" y="-847" as="targetPoint" />
            <mxPoint x="-650.25" y="-847" as="sourcePoint" />
          </mxGeometry>
        </mxCell>
      </root>
    </mxGraphModel>
  </diagram>
  <diagram id="7r70NzU6h-EX9BXDNfSF" name=" 技术路线">
    <mxGraphModel dx="1434" dy="764" grid="1" gridSize="10" guides="1" tooltips="1" connect="1" arrows="1" fold="1" page="1" pageScale="1" pageWidth="1169" pageHeight="827" math="0" shadow="0">
      <root>
        <mxCell id="0" />
        <mxCell id="1" parent="0" />
        <mxCell id="MLURV-pbrkB2mL58HyH3-13" value="" style="rounded=0;whiteSpace=wrap;html=1;fillStyle=auto;fillColor=#fa6800;strokeColor=default;fontColor=#000000;verticalAlign=bottom;" parent="1" vertex="1">
          <mxGeometry x="190" y="110" width="300" height="60" as="geometry" />
        </mxCell>
        <mxCell id="MLURV-pbrkB2mL58HyH3-4" style="edgeStyle=orthogonalEdgeStyle;rounded=0;orthogonalLoop=1;jettySize=auto;html=1;entryX=0;entryY=0.5;entryDx=0;entryDy=0;" parent="1" source="MLURV-pbrkB2mL58HyH3-1" target="MLURV-pbrkB2mL58HyH3-2" edge="1">
          <mxGeometry relative="1" as="geometry" />
        </mxCell>
        <mxCell id="MLURV-pbrkB2mL58HyH3-1" value="定制CBS算法" style="rounded=0;whiteSpace=wrap;html=1;fillColor=#fa6800;fontColor=#000000;strokeColor=#FFFFFF;" parent="1" vertex="1">
          <mxGeometry x="200" y="120" width="120" height="40" as="geometry" />
        </mxCell>
        <mxCell id="MLURV-pbrkB2mL58HyH3-5" style="edgeStyle=orthogonalEdgeStyle;rounded=0;orthogonalLoop=1;jettySize=auto;html=1;entryX=0.5;entryY=0;entryDx=0;entryDy=0;" parent="1" source="MLURV-pbrkB2mL58HyH3-2" target="MLURV-pbrkB2mL58HyH3-9" edge="1">
          <mxGeometry relative="1" as="geometry" />
        </mxCell>
        <mxCell id="MLURV-pbrkB2mL58HyH3-2" value="定制PIBT算法" style="rounded=0;whiteSpace=wrap;html=1;fillColor=#fa6800;fontColor=#000000;strokeColor=#FFFFFF;" parent="1" vertex="1">
          <mxGeometry x="360" y="120" width="120" height="40" as="geometry" />
        </mxCell>
        <mxCell id="MLURV-pbrkB2mL58HyH3-7" style="edgeStyle=orthogonalEdgeStyle;rounded=0;orthogonalLoop=1;jettySize=auto;html=1;entryX=0.5;entryY=1;entryDx=0;entryDy=0;exitX=0.5;exitY=0;exitDx=0;exitDy=0;" parent="1" source="MLURV-pbrkB2mL58HyH3-3" target="MLURV-pbrkB2mL58HyH3-13" edge="1">
          <mxGeometry relative="1" as="geometry" />
        </mxCell>
        <mxCell id="MLURV-pbrkB2mL58HyH3-8" style="edgeStyle=orthogonalEdgeStyle;rounded=0;orthogonalLoop=1;jettySize=auto;html=1;exitX=0.5;exitY=1;exitDx=0;exitDy=0;entryX=1;entryY=0.5;entryDx=0;entryDy=0;" parent="1" source="MLURV-pbrkB2mL58HyH3-9" target="MLURV-pbrkB2mL58HyH3-3" edge="1">
          <mxGeometry relative="1" as="geometry">
            <mxPoint x="770" y="260" as="targetPoint" />
          </mxGeometry>
        </mxCell>
        <mxCell id="MLURV-pbrkB2mL58HyH3-12" style="edgeStyle=orthogonalEdgeStyle;rounded=0;orthogonalLoop=1;jettySize=auto;html=1;exitX=0.5;exitY=1;exitDx=0;exitDy=0;entryX=0.5;entryY=0;entryDx=0;entryDy=0;" parent="1" source="MLURV-pbrkB2mL58HyH3-3" target="MLURV-pbrkB2mL58HyH3-17" edge="1">
          <mxGeometry relative="1" as="geometry">
            <mxPoint x="250.0000000000001" y="270" as="targetPoint" />
          </mxGeometry>
        </mxCell>
        <mxCell id="MLURV-pbrkB2mL58HyH3-3" value="人工与AI设计算法对比调优" style="rounded=0;whiteSpace=wrap;html=1;fillColor=#fa6800;fontColor=#000000;strokeColor=#000000;fillStyle=auto;" parent="1" vertex="1">
          <mxGeometry x="190" y="200" width="300" height="40" as="geometry" />
        </mxCell>
        <mxCell id="MLURV-pbrkB2mL58HyH3-9" value="训练AI实现在线实时路径规划算法" style="rounded=0;whiteSpace=wrap;html=1;fillColor=#008a00;fontColor=#ffffff;strokeColor=#FFFFFF;" parent="1" vertex="1">
          <mxGeometry x="540" y="160" width="120" height="40" as="geometry" />
        </mxCell>
        <mxCell id="MLURV-pbrkB2mL58HyH3-17" value="&lt;span style=&quot;color: rgb(0, 0, 0); font-family: Helvetica; font-size: 12px; font-style: normal; font-variant-ligatures: normal; font-variant-caps: normal; font-weight: 400; letter-spacing: normal; orphans: 2; text-align: center; text-indent: 0px; text-transform: none; widows: 2; word-spacing: 0px; -webkit-text-stroke-width: 0px; background-color: rgb(251, 251, 251); text-decoration-thickness: initial; text-decoration-style: initial; text-decoration-color: initial; float: none; display: inline !important;&quot;&gt;持续更新的在线实时路径规划算法&lt;/span&gt;" style="shape=document;whiteSpace=wrap;html=1;boundedLbl=1;size=0.125;verticalAlign=middle;" parent="1" vertex="1">
          <mxGeometry x="300" y="260" width="80" height="80" as="geometry" />
        </mxCell>
        <mxCell id="MLURV-pbrkB2mL58HyH3-19" value="" style="html=1;shadow=0;dashed=0;align=center;verticalAlign=middle;shape=mxgraph.arrows2.uTurnArrow;dy=2.54;arrowHead=12.2;dx2=7.68;" parent="1" vertex="1">
          <mxGeometry x="430" y="175" width="20" height="20" as="geometry" />
        </mxCell>
        <mxCell id="MLURV-pbrkB2mL58HyH3-20" value="持续优化" style="text;html=1;strokeColor=none;fillColor=none;align=center;verticalAlign=middle;whiteSpace=wrap;rounded=0;" parent="1" vertex="1">
          <mxGeometry x="450" y="170" width="60" height="30" as="geometry" />
        </mxCell>
        <mxCell id="MLURV-pbrkB2mL58HyH3-23" value="" style="rounded=0;whiteSpace=wrap;html=1;fillStyle=auto;verticalAlign=bottom;fillColor=#008a00;fontColor=#ffffff;strokeColor=#005700;" parent="1" vertex="1">
          <mxGeometry x="537.5" y="307.25" width="30" height="11" as="geometry" />
        </mxCell>
        <mxCell id="MLURV-pbrkB2mL58HyH3-24" value="" style="rounded=0;whiteSpace=wrap;html=1;fillStyle=auto;fillColor=#fa6800;strokeColor=default;fontColor=#000000;verticalAlign=bottom;" parent="1" vertex="1">
          <mxGeometry x="537.5" y="282.25" width="30" height="10" as="geometry" />
        </mxCell>
        <mxCell id="MLURV-pbrkB2mL58HyH3-25" value="人类算法工程师" style="text;html=1;strokeColor=none;fillColor=none;align=center;verticalAlign=middle;whiteSpace=wrap;rounded=0;" parent="1" vertex="1">
          <mxGeometry x="567.5" y="277.25" width="95" height="20" as="geometry" />
        </mxCell>
        <mxCell id="MLURV-pbrkB2mL58HyH3-26" value="机器AI助手" style="text;html=1;strokeColor=none;fillColor=none;align=center;verticalAlign=middle;whiteSpace=wrap;rounded=0;" parent="1" vertex="1">
          <mxGeometry x="567.5" y="302.75" width="95" height="20" as="geometry" />
        </mxCell>
      </root>
    </mxGraphModel>
  </diagram>
  <diagram id="pW1sIn58tYcYumZA92xY" name="算法说明">
    <mxGraphModel dx="2603" dy="1591" grid="1" gridSize="10" guides="1" tooltips="1" connect="1" arrows="1" fold="1" page="1" pageScale="1" pageWidth="1169" pageHeight="827" math="0" shadow="0">
      <root>
        <mxCell id="0" />
        <mxCell id="1" parent="0" />
        <mxCell id="s3bJrd9HGMpdiuUMYcxR-1" value="SingleAgentSolver" style="swimlane;fontStyle=1;align=center;verticalAlign=top;childLayout=stackLayout;horizontal=1;startSize=26;horizontalStack=0;resizeParent=1;resizeParentMax=0;resizeLast=0;collapsible=1;marginBottom=0;whiteSpace=wrap;html=1;" parent="1" vertex="1">
          <mxGeometry x="560" y="24" width="160" height="112" as="geometry" />
        </mxCell>
        <mxCell id="s3bJrd9HGMpdiuUMYcxR-2" value="+ start_location: int" style="text;strokeColor=none;fillColor=none;align=left;verticalAlign=top;spacingLeft=4;spacingRight=4;overflow=hidden;rotatable=0;points=[[0,0.5],[1,0.5]];portConstraint=eastwest;whiteSpace=wrap;html=1;" parent="s3bJrd9HGMpdiuUMYcxR-1" vertex="1">
          <mxGeometry y="26" width="160" height="26" as="geometry" />
        </mxCell>
        <mxCell id="0BBArvrQWjkJSJsSDx8D-1" value="+ goal_location: int" style="text;strokeColor=none;fillColor=none;align=left;verticalAlign=top;spacingLeft=4;spacingRight=4;overflow=hidden;rotatable=0;points=[[0,0.5],[1,0.5]];portConstraint=eastwest;whiteSpace=wrap;html=1;" parent="s3bJrd9HGMpdiuUMYcxR-1" vertex="1">
          <mxGeometry y="52" width="160" height="26" as="geometry" />
        </mxCell>
        <mxCell id="s3bJrd9HGMpdiuUMYcxR-3" value="" style="line;strokeWidth=1;fillColor=none;align=left;verticalAlign=middle;spacingTop=-1;spacingLeft=3;spacingRight=3;rotatable=0;labelPosition=right;points=[];portConstraint=eastwest;strokeColor=inherit;" parent="s3bJrd9HGMpdiuUMYcxR-1" vertex="1">
          <mxGeometry y="78" width="160" height="8" as="geometry" />
        </mxCell>
        <mxCell id="s3bJrd9HGMpdiuUMYcxR-4" value="+ findPath(type): Path" style="text;strokeColor=none;fillColor=none;align=left;verticalAlign=top;spacingLeft=4;spacingRight=4;overflow=hidden;rotatable=0;points=[[0,0.5],[1,0.5]];portConstraint=eastwest;whiteSpace=wrap;html=1;" parent="s3bJrd9HGMpdiuUMYcxR-1" vertex="1">
          <mxGeometry y="86" width="160" height="26" as="geometry" />
        </mxCell>
        <mxCell id="s3bJrd9HGMpdiuUMYcxR-5" value="SpaceTimeAStar" style="swimlane;fontStyle=1;align=center;verticalAlign=top;childLayout=stackLayout;horizontal=1;startSize=26;horizontalStack=0;resizeParent=1;resizeParentMax=0;resizeLast=0;collapsible=1;marginBottom=0;whiteSpace=wrap;html=1;" parent="1" vertex="1">
          <mxGeometry x="680" y="280" width="160" height="86" as="geometry" />
        </mxCell>
        <mxCell id="s3bJrd9HGMpdiuUMYcxR-6" value="+ field: type" style="text;strokeColor=none;fillColor=none;align=left;verticalAlign=top;spacingLeft=4;spacingRight=4;overflow=hidden;rotatable=0;points=[[0,0.5],[1,0.5]];portConstraint=eastwest;whiteSpace=wrap;html=1;" parent="s3bJrd9HGMpdiuUMYcxR-5" vertex="1">
          <mxGeometry y="26" width="160" height="26" as="geometry" />
        </mxCell>
        <mxCell id="s3bJrd9HGMpdiuUMYcxR-7" value="" style="line;strokeWidth=1;fillColor=none;align=left;verticalAlign=middle;spacingTop=-1;spacingLeft=3;spacingRight=3;rotatable=0;labelPosition=right;points=[];portConstraint=eastwest;strokeColor=inherit;" parent="s3bJrd9HGMpdiuUMYcxR-5" vertex="1">
          <mxGeometry y="52" width="160" height="8" as="geometry" />
        </mxCell>
        <mxCell id="s3bJrd9HGMpdiuUMYcxR-8" value="+ method(type): type" style="text;strokeColor=none;fillColor=none;align=left;verticalAlign=top;spacingLeft=4;spacingRight=4;overflow=hidden;rotatable=0;points=[[0,0.5],[1,0.5]];portConstraint=eastwest;whiteSpace=wrap;html=1;" parent="s3bJrd9HGMpdiuUMYcxR-5" vertex="1">
          <mxGeometry y="60" width="160" height="26" as="geometry" />
        </mxCell>
        <mxCell id="s3bJrd9HGMpdiuUMYcxR-10" value="Extends" style="endArrow=block;endSize=16;endFill=0;html=1;rounded=0;exitX=0.5;exitY=0;exitDx=0;exitDy=0;" parent="1" source="s3bJrd9HGMpdiuUMYcxR-5" target="s3bJrd9HGMpdiuUMYcxR-1" edge="1">
          <mxGeometry width="160" relative="1" as="geometry">
            <mxPoint x="452" y="530" as="sourcePoint" />
            <mxPoint x="612" y="530" as="targetPoint" />
          </mxGeometry>
        </mxCell>
        <mxCell id="s3bJrd9HGMpdiuUMYcxR-11" value="SIPP" style="swimlane;fontStyle=1;align=center;verticalAlign=top;childLayout=stackLayout;horizontal=1;startSize=26;horizontalStack=0;resizeParent=1;resizeParentMax=0;resizeLast=0;collapsible=1;marginBottom=0;whiteSpace=wrap;html=1;" parent="1" vertex="1">
          <mxGeometry x="440" y="280" width="160" height="86" as="geometry" />
        </mxCell>
        <mxCell id="s3bJrd9HGMpdiuUMYcxR-12" value="+ field: type" style="text;strokeColor=none;fillColor=none;align=left;verticalAlign=top;spacingLeft=4;spacingRight=4;overflow=hidden;rotatable=0;points=[[0,0.5],[1,0.5]];portConstraint=eastwest;whiteSpace=wrap;html=1;" parent="s3bJrd9HGMpdiuUMYcxR-11" vertex="1">
          <mxGeometry y="26" width="160" height="26" as="geometry" />
        </mxCell>
        <mxCell id="s3bJrd9HGMpdiuUMYcxR-13" value="" style="line;strokeWidth=1;fillColor=none;align=left;verticalAlign=middle;spacingTop=-1;spacingLeft=3;spacingRight=3;rotatable=0;labelPosition=right;points=[];portConstraint=eastwest;strokeColor=inherit;" parent="s3bJrd9HGMpdiuUMYcxR-11" vertex="1">
          <mxGeometry y="52" width="160" height="8" as="geometry" />
        </mxCell>
        <mxCell id="s3bJrd9HGMpdiuUMYcxR-14" value="+ method(type): type" style="text;strokeColor=none;fillColor=none;align=left;verticalAlign=top;spacingLeft=4;spacingRight=4;overflow=hidden;rotatable=0;points=[[0,0.5],[1,0.5]];portConstraint=eastwest;whiteSpace=wrap;html=1;" parent="s3bJrd9HGMpdiuUMYcxR-11" vertex="1">
          <mxGeometry y="60" width="160" height="26" as="geometry" />
        </mxCell>
        <mxCell id="s3bJrd9HGMpdiuUMYcxR-15" value="Extends" style="endArrow=block;endSize=16;endFill=0;html=1;rounded=0;" parent="1" source="s3bJrd9HGMpdiuUMYcxR-11" target="s3bJrd9HGMpdiuUMYcxR-1" edge="1">
          <mxGeometry width="160" relative="1" as="geometry">
            <mxPoint x="582" y="300" as="sourcePoint" />
            <mxPoint x="582" y="166" as="targetPoint" />
          </mxGeometry>
        </mxCell>
        <mxCell id="s3bJrd9HGMpdiuUMYcxR-21" value="CBS" style="swimlane;fontStyle=1;align=center;verticalAlign=top;childLayout=stackLayout;horizontal=1;startSize=26;horizontalStack=0;resizeParent=1;resizeParentMax=0;resizeLast=0;collapsible=1;marginBottom=0;whiteSpace=wrap;html=1;" parent="1" vertex="1">
          <mxGeometry x="150" y="-28" width="279" height="216" as="geometry" />
        </mxCell>
        <mxCell id="s3bJrd9HGMpdiuUMYcxR-22" value="+ search_engines: Vector&amp;lt;singleAgentSolver*&amp;gt;" style="text;strokeColor=none;fillColor=none;align=left;verticalAlign=top;spacingLeft=4;spacingRight=4;overflow=hidden;rotatable=0;points=[[0,0.5],[1,0.5]];portConstraint=eastwest;whiteSpace=wrap;html=1;" parent="s3bJrd9HGMpdiuUMYcxR-21" vertex="1">
          <mxGeometry y="26" width="279" height="26" as="geometry" />
        </mxCell>
        <mxCell id="s3bJrd9HGMpdiuUMYcxR-35" value="+ paths_found_initially: Vector&amp;lt;Path&amp;gt;" style="text;strokeColor=none;fillColor=none;align=left;verticalAlign=top;spacingLeft=4;spacingRight=4;overflow=hidden;rotatable=0;points=[[0,0.5],[1,0.5]];portConstraint=eastwest;whiteSpace=wrap;html=1;" parent="s3bJrd9HGMpdiuUMYcxR-21" vertex="1">
          <mxGeometry y="52" width="279" height="26" as="geometry" />
        </mxCell>
        <mxCell id="2M_cFp4L8MOYy15oajsD-2" value="- heuristic_helper: CBSHeuristic" style="text;strokeColor=none;fillColor=none;align=left;verticalAlign=top;spacingLeft=4;spacingRight=4;overflow=hidden;rotatable=0;points=[[0,0.5],[1,0.5]];portConstraint=eastwest;whiteSpace=wrap;html=1;" parent="s3bJrd9HGMpdiuUMYcxR-21" vertex="1">
          <mxGeometry y="78" width="279" height="26" as="geometry" />
        </mxCell>
        <mxCell id="s3bJrd9HGMpdiuUMYcxR-23" value="" style="line;strokeWidth=1;fillColor=none;align=left;verticalAlign=middle;spacingTop=-1;spacingLeft=3;spacingRight=3;rotatable=0;labelPosition=right;points=[];portConstraint=eastwest;strokeColor=inherit;" parent="s3bJrd9HGMpdiuUMYcxR-21" vertex="1">
          <mxGeometry y="104" width="279" height="8" as="geometry" />
        </mxCell>
        <mxCell id="s3bJrd9HGMpdiuUMYcxR-24" value="+ solve(type): bool&lt;span style=&quot;white-space: pre;&quot;&gt; &lt;/span&gt;" style="text;strokeColor=none;fillColor=none;align=left;verticalAlign=top;spacingLeft=4;spacingRight=4;overflow=hidden;rotatable=0;points=[[0,0.5],[1,0.5]];portConstraint=eastwest;whiteSpace=wrap;html=1;" parent="s3bJrd9HGMpdiuUMYcxR-21" vertex="1">
          <mxGeometry y="112" width="279" height="26" as="geometry" />
        </mxCell>
        <mxCell id="158pBmxtom3VyrYWya45-1" value="- findPathForSingleAgent(): bool" style="text;strokeColor=none;fillColor=none;align=left;verticalAlign=top;spacingLeft=4;spacingRight=4;overflow=hidden;rotatable=0;points=[[0,0.5],[1,0.5]];portConstraint=eastwest;whiteSpace=wrap;html=1;" parent="s3bJrd9HGMpdiuUMYcxR-21" vertex="1">
          <mxGeometry y="138" width="279" height="26" as="geometry" />
        </mxCell>
        <mxCell id="s3bJrd9HGMpdiuUMYcxR-34" value="- generateChild(): bool&lt;span style=&quot;white-space: pre;&quot;&gt; &lt;/span&gt;" style="text;strokeColor=none;fillColor=none;align=left;verticalAlign=top;spacingLeft=4;spacingRight=4;overflow=hidden;rotatable=0;points=[[0,0.5],[1,0.5]];portConstraint=eastwest;whiteSpace=wrap;html=1;" parent="s3bJrd9HGMpdiuUMYcxR-21" vertex="1">
          <mxGeometry y="164" width="279" height="26" as="geometry" />
        </mxCell>
        <mxCell id="158pBmxtom3VyrYWya45-2" value="- generateRoot(): bool&lt;span style=&quot;white-space: pre;&quot;&gt; &lt;/span&gt;" style="text;strokeColor=none;fillColor=none;align=left;verticalAlign=top;spacingLeft=4;spacingRight=4;overflow=hidden;rotatable=0;points=[[0,0.5],[1,0.5]];portConstraint=eastwest;whiteSpace=wrap;html=1;" parent="s3bJrd9HGMpdiuUMYcxR-21" vertex="1">
          <mxGeometry y="190" width="279" height="26" as="geometry" />
        </mxCell>
        <mxCell id="s3bJrd9HGMpdiuUMYcxR-26" value="" style="endArrow=open;endFill=1;endSize=12;html=1;rounded=0;" parent="1" source="s3bJrd9HGMpdiuUMYcxR-21" target="s3bJrd9HGMpdiuUMYcxR-1" edge="1">
          <mxGeometry width="160" relative="1" as="geometry">
            <mxPoint x="350" y="154" as="sourcePoint" />
            <mxPoint x="510" y="154" as="targetPoint" />
          </mxGeometry>
        </mxCell>
        <mxCell id="s3bJrd9HGMpdiuUMYcxR-36" value="CBSNode" style="swimlane;fontStyle=1;align=center;verticalAlign=top;childLayout=stackLayout;horizontal=1;startSize=26;horizontalStack=0;resizeParent=1;resizeParentMax=0;resizeLast=0;collapsible=1;marginBottom=0;whiteSpace=wrap;html=1;" parent="1" vertex="1">
          <mxGeometry x="80" y="480" width="200" height="216" as="geometry" />
        </mxCell>
        <mxCell id="s3bJrd9HGMpdiuUMYcxR-37" value="+ conflicts: list&amp;lt;Confilict*&amp;gt;" style="text;strokeColor=none;fillColor=none;align=left;verticalAlign=top;spacingLeft=4;spacingRight=4;overflow=hidden;rotatable=0;points=[[0,0.5],[1,0.5]];portConstraint=eastwest;whiteSpace=wrap;html=1;" parent="s3bJrd9HGMpdiuUMYcxR-36" vertex="1">
          <mxGeometry y="26" width="200" height="26" as="geometry" />
        </mxCell>
        <mxCell id="s3bJrd9HGMpdiuUMYcxR-40" value="+ unknownConf: list&amp;lt;Confilict*&amp;gt;" style="text;strokeColor=none;fillColor=none;align=left;verticalAlign=top;spacingLeft=4;spacingRight=4;overflow=hidden;rotatable=0;points=[[0,0.5],[1,0.5]];portConstraint=eastwest;whiteSpace=wrap;html=1;" parent="s3bJrd9HGMpdiuUMYcxR-36" vertex="1">
          <mxGeometry y="52" width="200" height="26" as="geometry" />
        </mxCell>
        <mxCell id="s3bJrd9HGMpdiuUMYcxR-41" value="+ confilict: Confilict*" style="text;strokeColor=none;fillColor=none;align=left;verticalAlign=top;spacingLeft=4;spacingRight=4;overflow=hidden;rotatable=0;points=[[0,0.5],[1,0.5]];portConstraint=eastwest;whiteSpace=wrap;html=1;" parent="s3bJrd9HGMpdiuUMYcxR-36" vertex="1">
          <mxGeometry y="78" width="200" height="26" as="geometry" />
        </mxCell>
        <mxCell id="s3bJrd9HGMpdiuUMYcxR-42" value="+ parent: CBSNode*" style="text;strokeColor=none;fillColor=none;align=left;verticalAlign=top;spacingLeft=4;spacingRight=4;overflow=hidden;rotatable=0;points=[[0,0.5],[1,0.5]];portConstraint=eastwest;whiteSpace=wrap;html=1;" parent="s3bJrd9HGMpdiuUMYcxR-36" vertex="1">
          <mxGeometry y="104" width="200" height="26" as="geometry" />
        </mxCell>
        <mxCell id="s3bJrd9HGMpdiuUMYcxR-43" value="+ paths: list&amp;lt;pair&amp;lt;int, Path&amp;gt;&amp;gt;" style="text;strokeColor=none;fillColor=none;align=left;verticalAlign=top;spacingLeft=4;spacingRight=4;overflow=hidden;rotatable=0;points=[[0,0.5],[1,0.5]];portConstraint=eastwest;whiteSpace=wrap;html=1;" parent="s3bJrd9HGMpdiuUMYcxR-36" vertex="1">
          <mxGeometry y="130" width="200" height="26" as="geometry" />
        </mxCell>
        <mxCell id="s3bJrd9HGMpdiuUMYcxR-44" value="+ constraints: list&amp;lt;constraint&amp;gt;" style="text;strokeColor=none;fillColor=none;align=left;verticalAlign=top;spacingLeft=4;spacingRight=4;overflow=hidden;rotatable=0;points=[[0,0.5],[1,0.5]];portConstraint=eastwest;whiteSpace=wrap;html=1;" parent="s3bJrd9HGMpdiuUMYcxR-36" vertex="1">
          <mxGeometry y="156" width="200" height="26" as="geometry" />
        </mxCell>
        <mxCell id="s3bJrd9HGMpdiuUMYcxR-38" value="" style="line;strokeWidth=1;fillColor=none;align=left;verticalAlign=middle;spacingTop=-1;spacingLeft=3;spacingRight=3;rotatable=0;labelPosition=right;points=[];portConstraint=eastwest;strokeColor=inherit;" parent="s3bJrd9HGMpdiuUMYcxR-36" vertex="1">
          <mxGeometry y="182" width="200" height="8" as="geometry" />
        </mxCell>
        <mxCell id="s3bJrd9HGMpdiuUMYcxR-39" value="+ method(type): type" style="text;strokeColor=none;fillColor=none;align=left;verticalAlign=top;spacingLeft=4;spacingRight=4;overflow=hidden;rotatable=0;points=[[0,0.5],[1,0.5]];portConstraint=eastwest;whiteSpace=wrap;html=1;" parent="s3bJrd9HGMpdiuUMYcxR-36" vertex="1">
          <mxGeometry y="190" width="200" height="26" as="geometry" />
        </mxCell>
        <mxCell id="s3bJrd9HGMpdiuUMYcxR-45" value="CBS算法顶层实现思路&lt;br&gt;（1）求一个潜在解，每个Agent独自寻找路径；&lt;br&gt;（2）潜在解插入OPEN；&lt;br&gt;（3）While循环&lt;br&gt;&amp;nbsp; &amp;nbsp; &amp;nbsp; &amp;nbsp; &amp;nbsp; &amp;nbsp; &amp;nbsp; &amp;nbsp; 从OPEN取最小score值潜在解节点P&lt;br&gt;&amp;nbsp; &amp;nbsp; &amp;nbsp; &amp;nbsp; &amp;nbsp; &amp;nbsp; &amp;nbsp; &amp;nbsp; 检查P中路径是否存在冲突，不则返回，结束&lt;br&gt;&amp;nbsp; &amp;nbsp; &amp;nbsp; &amp;nbsp; &amp;nbsp; &amp;nbsp; &amp;nbsp; &amp;nbsp; 如果P存在冲突（ai和aj在位置v和时间t），对冲突的每个agent，记为ai依次如下操作&lt;br&gt;&amp;nbsp; &amp;nbsp; &amp;nbsp; &amp;nbsp; &amp;nbsp; &amp;nbsp; &amp;nbsp; &amp;nbsp; &amp;nbsp; &amp;nbsp; &amp;nbsp; &amp;nbsp;&lt;span style=&quot;white-space: pre;&quot;&gt; &lt;/span&gt;生成新的潜在解节点A&lt;br&gt;&lt;span style=&quot;white-space: pre;&quot;&gt; &lt;/span&gt;&lt;span style=&quot;white-space: pre;&quot;&gt; &lt;/span&gt;&lt;span style=&quot;white-space: pre;&quot;&gt; &lt;/span&gt;构造A的约束表：本次冲突位置和时间+P以前的约束&lt;br&gt;&lt;span style=&quot;white-space: pre;&quot;&gt; &lt;/span&gt;&lt;span style=&quot;white-space: pre;&quot;&gt; &lt;/span&gt;&lt;span style=&quot;white-space: pre;&quot;&gt; &lt;/span&gt;把P的解作为A的解，等调底层寻路算法，更新ai，求ai的新路（规避冲突），更新SIC（所有路径成本和）&lt;br&gt;&lt;span style=&quot;white-space: pre;&quot;&gt; &lt;/span&gt;&lt;span style=&quot;white-space: pre;&quot;&gt; &lt;/span&gt;&lt;span style=&quot;white-space: pre;&quot;&gt; &lt;/span&gt;如果新路存在，把新的潜在节点入OPEN，等待下一轮冲突评估" style="shape=note;whiteSpace=wrap;html=1;backgroundOutline=1;darkOpacity=0.05;size=13;align=left;verticalAlign=top;" parent="1" vertex="1">
          <mxGeometry x="320" y="494" width="660" height="174" as="geometry" />
        </mxCell>
        <mxCell id="60vQvA607RlpY5onPkxv-1" value="AStarNode" style="swimlane;fontStyle=1;align=center;verticalAlign=top;childLayout=stackLayout;horizontal=1;startSize=26;horizontalStack=0;resizeParent=1;resizeParentMax=0;resizeLast=0;collapsible=1;marginBottom=0;whiteSpace=wrap;html=1;" parent="1" vertex="1">
          <mxGeometry x="920" y="200" width="200" height="138" as="geometry" />
        </mxCell>
        <mxCell id="60vQvA607RlpY5onPkxv-2" value="+ location: int" style="text;strokeColor=none;fillColor=none;align=left;verticalAlign=top;spacingLeft=4;spacingRight=4;overflow=hidden;rotatable=0;points=[[0,0.5],[1,0.5]];portConstraint=eastwest;whiteSpace=wrap;html=1;" parent="60vQvA607RlpY5onPkxv-1" vertex="1">
          <mxGeometry y="26" width="200" height="26" as="geometry" />
        </mxCell>
        <mxCell id="60vQvA607RlpY5onPkxv-5" value="+ timestep: int" style="text;strokeColor=none;fillColor=none;align=left;verticalAlign=top;spacingLeft=4;spacingRight=4;overflow=hidden;rotatable=0;points=[[0,0.5],[1,0.5]];portConstraint=eastwest;whiteSpace=wrap;html=1;" parent="60vQvA607RlpY5onPkxv-1" vertex="1">
          <mxGeometry y="52" width="200" height="26" as="geometry" />
        </mxCell>
        <mxCell id="60vQvA607RlpY5onPkxv-7" value="+ parent: LLNode*" style="text;strokeColor=none;fillColor=none;align=left;verticalAlign=top;spacingLeft=4;spacingRight=4;overflow=hidden;rotatable=0;points=[[0,0.5],[1,0.5]];portConstraint=eastwest;whiteSpace=wrap;html=1;" parent="60vQvA607RlpY5onPkxv-1" vertex="1">
          <mxGeometry y="78" width="200" height="26" as="geometry" />
        </mxCell>
        <mxCell id="60vQvA607RlpY5onPkxv-3" value="" style="line;strokeWidth=1;fillColor=none;align=left;verticalAlign=middle;spacingTop=-1;spacingLeft=3;spacingRight=3;rotatable=0;labelPosition=right;points=[];portConstraint=eastwest;strokeColor=inherit;" parent="60vQvA607RlpY5onPkxv-1" vertex="1">
          <mxGeometry y="104" width="200" height="8" as="geometry" />
        </mxCell>
        <mxCell id="60vQvA607RlpY5onPkxv-4" value="+ getFVal(): double" style="text;strokeColor=none;fillColor=none;align=left;verticalAlign=top;spacingLeft=4;spacingRight=4;overflow=hidden;rotatable=0;points=[[0,0.5],[1,0.5]];portConstraint=eastwest;whiteSpace=wrap;html=1;" parent="60vQvA607RlpY5onPkxv-1" vertex="1">
          <mxGeometry y="112" width="200" height="26" as="geometry" />
        </mxCell>
        <mxCell id="60vQvA607RlpY5onPkxv-9" value="LLNode" style="swimlane;fontStyle=1;align=center;verticalAlign=top;childLayout=stackLayout;horizontal=1;startSize=26;horizontalStack=0;resizeParent=1;resizeParentMax=0;resizeLast=0;collapsible=1;marginBottom=0;whiteSpace=wrap;html=1;" parent="1" vertex="1">
          <mxGeometry x="920" y="-80" width="200" height="190" as="geometry" />
        </mxCell>
        <mxCell id="60vQvA607RlpY5onPkxv-10" value="+ location: int" style="text;strokeColor=none;fillColor=none;align=left;verticalAlign=top;spacingLeft=4;spacingRight=4;overflow=hidden;rotatable=0;points=[[0,0.5],[1,0.5]];portConstraint=eastwest;whiteSpace=wrap;html=1;" parent="60vQvA607RlpY5onPkxv-9" vertex="1">
          <mxGeometry y="26" width="200" height="26" as="geometry" />
        </mxCell>
        <mxCell id="60vQvA607RlpY5onPkxv-11" value="+ timestep: int" style="text;strokeColor=none;fillColor=none;align=left;verticalAlign=top;spacingLeft=4;spacingRight=4;overflow=hidden;rotatable=0;points=[[0,0.5],[1,0.5]];portConstraint=eastwest;whiteSpace=wrap;html=1;" parent="60vQvA607RlpY5onPkxv-9" vertex="1">
          <mxGeometry y="52" width="200" height="26" as="geometry" />
        </mxCell>
        <mxCell id="60vQvA607RlpY5onPkxv-12" value="+ parent: LLNode*" style="text;strokeColor=none;fillColor=none;align=left;verticalAlign=top;spacingLeft=4;spacingRight=4;overflow=hidden;rotatable=0;points=[[0,0.5],[1,0.5]];portConstraint=eastwest;whiteSpace=wrap;html=1;" parent="60vQvA607RlpY5onPkxv-9" vertex="1">
          <mxGeometry y="78" width="200" height="26" as="geometry" />
        </mxCell>
        <mxCell id="60vQvA607RlpY5onPkxv-13" value="+ g_val: int" style="text;strokeColor=none;fillColor=none;align=left;verticalAlign=top;spacingLeft=4;spacingRight=4;overflow=hidden;rotatable=0;points=[[0,0.5],[1,0.5]];portConstraint=eastwest;whiteSpace=wrap;html=1;" parent="60vQvA607RlpY5onPkxv-9" vertex="1">
          <mxGeometry y="104" width="200" height="26" as="geometry" />
        </mxCell>
        <mxCell id="60vQvA607RlpY5onPkxv-14" value="+ h_val: int" style="text;strokeColor=none;fillColor=none;align=left;verticalAlign=top;spacingLeft=4;spacingRight=4;overflow=hidden;rotatable=0;points=[[0,0.5],[1,0.5]];portConstraint=eastwest;whiteSpace=wrap;html=1;" parent="60vQvA607RlpY5onPkxv-9" vertex="1">
          <mxGeometry y="130" width="200" height="26" as="geometry" />
        </mxCell>
        <mxCell id="60vQvA607RlpY5onPkxv-15" value="" style="line;strokeWidth=1;fillColor=none;align=left;verticalAlign=middle;spacingTop=-1;spacingLeft=3;spacingRight=3;rotatable=0;labelPosition=right;points=[];portConstraint=eastwest;strokeColor=inherit;" parent="60vQvA607RlpY5onPkxv-9" vertex="1">
          <mxGeometry y="156" width="200" height="8" as="geometry" />
        </mxCell>
        <mxCell id="60vQvA607RlpY5onPkxv-16" value="+ getFVal(): double" style="text;strokeColor=none;fillColor=none;align=left;verticalAlign=top;spacingLeft=4;spacingRight=4;overflow=hidden;rotatable=0;points=[[0,0.5],[1,0.5]];portConstraint=eastwest;whiteSpace=wrap;html=1;" parent="60vQvA607RlpY5onPkxv-9" vertex="1">
          <mxGeometry y="164" width="200" height="26" as="geometry" />
        </mxCell>
        <mxCell id="60vQvA607RlpY5onPkxv-18" value="Extends" style="endArrow=block;endSize=16;endFill=0;html=1;rounded=0;" parent="1" source="60vQvA607RlpY5onPkxv-1" target="60vQvA607RlpY5onPkxv-9" edge="1">
          <mxGeometry width="160" relative="1" as="geometry">
            <mxPoint x="1107" y="234" as="sourcePoint" />
            <mxPoint x="1020" y="120" as="targetPoint" />
          </mxGeometry>
        </mxCell>
        <mxCell id="2M_cFp4L8MOYy15oajsD-3" value="CBSHeuristic" style="swimlane;fontStyle=1;align=center;verticalAlign=top;childLayout=stackLayout;horizontal=1;startSize=26;horizontalStack=0;resizeParent=1;resizeParentMax=0;resizeLast=0;collapsible=1;marginBottom=0;whiteSpace=wrap;html=1;" parent="1" vertex="1">
          <mxGeometry x="-240" y="11" width="290" height="138" as="geometry" />
        </mxCell>
        <mxCell id="2M_cFp4L8MOYy15oajsD-4" value="- search_engines: Vector&amp;lt;singleAgentSolver*&amp;gt;" style="text;strokeColor=none;fillColor=none;align=left;verticalAlign=top;spacingLeft=4;spacingRight=4;overflow=hidden;rotatable=0;points=[[0,0.5],[1,0.5]];portConstraint=eastwest;whiteSpace=wrap;html=1;" parent="2M_cFp4L8MOYy15oajsD-3" vertex="1">
          <mxGeometry y="26" width="290" height="26" as="geometry" />
        </mxCell>
        <mxCell id="2M_cFp4L8MOYy15oajsD-6" value="" style="line;strokeWidth=1;fillColor=none;align=left;verticalAlign=middle;spacingTop=-1;spacingLeft=3;spacingRight=3;rotatable=0;labelPosition=right;points=[];portConstraint=eastwest;strokeColor=inherit;" parent="2M_cFp4L8MOYy15oajsD-3" vertex="1">
          <mxGeometry y="52" width="290" height="8" as="geometry" />
        </mxCell>
        <mxCell id="2M_cFp4L8MOYy15oajsD-7" value="- solve2Agents(): int" style="text;strokeColor=none;fillColor=none;align=left;verticalAlign=top;spacingLeft=4;spacingRight=4;overflow=hidden;rotatable=0;points=[[0,0.5],[1,0.5]];portConstraint=eastwest;whiteSpace=wrap;html=1;" parent="2M_cFp4L8MOYy15oajsD-3" vertex="1">
          <mxGeometry y="60" width="290" height="26" as="geometry" />
        </mxCell>
        <mxCell id="2M_cFp4L8MOYy15oajsD-12" value="- buildWeightedDependencyGraph(): bool" style="text;strokeColor=none;fillColor=none;align=left;verticalAlign=top;spacingLeft=4;spacingRight=4;overflow=hidden;rotatable=0;points=[[0,0.5],[1,0.5]];portConstraint=eastwest;whiteSpace=wrap;html=1;" parent="2M_cFp4L8MOYy15oajsD-3" vertex="1">
          <mxGeometry y="86" width="290" height="26" as="geometry" />
        </mxCell>
        <mxCell id="2M_cFp4L8MOYy15oajsD-11" value="+ computeInformedHeuristics(): bool" style="text;strokeColor=none;fillColor=none;align=left;verticalAlign=top;spacingLeft=4;spacingRight=4;overflow=hidden;rotatable=0;points=[[0,0.5],[1,0.5]];portConstraint=eastwest;whiteSpace=wrap;html=1;" parent="2M_cFp4L8MOYy15oajsD-3" vertex="1">
          <mxGeometry y="112" width="290" height="26" as="geometry" />
        </mxCell>
        <mxCell id="2M_cFp4L8MOYy15oajsD-9" value="" style="endArrow=open;endFill=1;endSize=12;html=1;rounded=0;" parent="1" source="s3bJrd9HGMpdiuUMYcxR-21" target="2M_cFp4L8MOYy15oajsD-3" edge="1">
          <mxGeometry width="160" relative="1" as="geometry">
            <mxPoint x="439" y="90" as="sourcePoint" />
            <mxPoint x="570" y="90" as="targetPoint" />
          </mxGeometry>
        </mxCell>
      </root>
    </mxGraphModel>
  </diagram>
</mxfile>
